<svg aria-hidden="true" style="position: absolute; width: 0; height: 0; overflow: hidden;" version="1.1" xmlns="http://www.w3.org/2000/svg" xmlns:xlink="http://www.w3.org/1999/xlink">
<defs>
<symbol id="icon-sprite" viewBox="0 0 27 32">
<path d="M16.889 7.111c0-1.961-1.595-3.556-3.556-3.556s-3.556 1.595-3.556 3.556c0 1.961 1.595 3.556 3.556 3.556s3.556-1.595 3.556-3.556zM20.444 7.111c0 3.922-3.189 7.111-7.111 7.111s-7.111-3.189-7.111-7.111c0-3.922 3.189-7.111 7.111-7.111s7.111 3.189 7.111 7.111zM0.889 30.222c0-6.862 5.584-12.444 12.444-12.444s12.444 5.582 12.444 12.444c0 0.981-0.795 1.778-1.778 1.778s-1.778-0.797-1.778-1.778c0-4.901-3.988-8.889-8.889-8.889s-8.889 3.988-8.889 8.889c0 0.981-0.795 1.778-1.778 1.778s-1.778-0.797-1.778-1.778z"></path>
</symbol>
<symbol id="icon-user" viewBox="0 0 32 32">
<path d="M18 22.082v-1.649c2.203-1.241 4-4.337 4-7.432 0-4.971 0-9-6-9s-6 4.029-6 9c0 3.096 1.797 6.191 4 7.432v1.649c-6.784 0.555-12 3.888-12 7.918h28c0-4.030-5.216-7.364-12-7.918z"></path>
</symbol>

<symbol id="partner-hero-left" viewBox="0 0 49 32">
<path fill="#00ff85" style="fill: var(--color1, #00ff85)" opacity="0.08" d="M25.18 26.242c-2.836 0.293-22.4 1.894-24.837 2.628s12.178 0.448 14.049 0.344c1.871-0.104 3.33 0.304 1.191 0.842s8.405 0.173 14.225-0.258c5.82-0.431 0.241-0.914 3.664-1.268 3.427-0.358 15.367-1.276 12.499-1.719s4.117-1.033 2.475-1.361c-1.638-0.328-18.194 0.262-23.266 0.79z"></path>
<path fill="#1631a4" style="fill: var(--color2, #1631a4)" d="M15.395 25.942c0 0-0.569 1.455-0.502 1.521 0.067 0.072 0.635 0.095 0.686 0.095 0.045 0 1.232 0 1.232 0s0.457-1.059 0.418-1.092c-0.039-0.028-1.026-0.652-1.026-0.652l-0.808 0.128z"></path>
<path fill="#1631a4" style="fill: var(--color2, #1631a4)" d="M16.605 26.46c0 0-0.898 0.123-1.672-0.368 0 0 1.171-6.749 1.232-7.122s-0.061-5.11-0.061-5.11l1.79-0.546c0 0 0.385 7.278 0.362 7.211-0.017-0.061-1.65 5.935-1.65 5.935z"></path>
<path fill="#01008a" style="fill: var(--color3, #01008a)" d="M12.869 17.298c-0.006-0.022-0.295-2.235 1.645-2.569 0.552-0.095 1.026 0 1.422 0.279 0.73 0.513 0.898 1.471 0.903 1.516l-0.329 0.056c-0.011-0.072-0.329-1.8-1.946-1.521-1.622 0.279-1.383 2.118-1.371 2.196l-0.323 0.045z"></path>
<path fill="#fff" style="fill: var(--color4, #fff)" d="M18.511 1.666c0 0-0.15 1.064-0.463 1.705s-0.468 0.58-0.546 0.58c-0.078 0-1.589-0.875-1.589-0.875l-0.401-1.371 1.171-0.791 0.981 0.223 0.847 0.529z"></path>
<path fill="#fff" style="fill: var(--color4, #fff)" d="M17.324 3.868c0 0-0.351 0.017-0.451 0.602-0.095 0.585-0.095 0.585-0.095 0.585l-1.371-0.435 0.663-1.655 1.254 0.903z"></path>
<path fill="#231f20" style="fill: var(--color5, #231f20)" d="M16.51 2.235c0 0-0.139-0.496-0.463-0.329s0.061 0.903 0.284 0.842l-0.329 0.385-0.139 0.346c0 0-1.031-0.841-0.937-1.755 0.095-0.908 0.641-0.892 0.641-0.892s-0.117-0.596 0.641-0.802c0.758-0.206 2.888 0.936 3.423 0.641 0 0-0.647 1.85-1.622 1.254s-1.5 0.312-1.5 0.312z"></path>
<path fill="#e5e5e6" style="fill: var(--color6, #e5e5e6)" d="M15.406 4.62l0.045-0.502 1.678 0.502 0.095 0.763-1.817-0.763z"></path>
<path fill="#fff" style="fill: var(--color4, #fff)" d="M20.078 10.215c0 0 0.574-0.162 0.775-0.268 0.201-0.111 0.362-0.245 0.457-0.184s-0.279 0.373-0.307 0.401 0.786 0.033 0.898 0.050c0.111 0.022 0.474 0.111 0.474 0.178s-0.452 0.869-0.558 0.925c-0.111 0.056-1.238 0.028-1.316-0.033-0.078-0.056-0.691-0.245-0.691-0.245s0.234-0.814 0.268-0.825z"></path>
<path fill="#cbcbcb" style="fill: var(--color7, #cbcbcb)" d="M20.178 10.137c0 0-1.65-0.385-1.745-0.83-0.084-0.396-0.541 0.39-0.541 0.39l0.106 1.070c0 0 0.909 0.435 2.113 0.435l0.217-0.407c0 0 0.106-0.585-0.151-0.658z"></path>
<path fill="#1631a4" style="fill: var(--color2, #1631a4)" d="M18.015 26.739c0 0 0.262 0.591 0.658 0.903s0.675 0.139 0.886 0.619c0 0-3.077 0.028-3.172 0-0.1-0.028 0.535-1.416 0.652-1.494 0.117-0.067 0.976-0.028 0.976-0.028z"></path>
<path fill="#01008a" style="fill: var(--color3, #01008a)" d="M16.376 26.728c0 0 0.981 0.435 1.884 0.312 0 0 1.427-7.769 1.399-8.058s-1.188-7.78-1.188-7.78l-3.122 0.741c0 0 0.401 2.876 0.663 2.92s0.413 0.212 0.413 0.212 1.042 4.352 1.003 4.737c-0.039 0.384-1.054 6.916-1.054 6.916z"></path>
<path fill="#6ded02" style="fill: var(--color8, #6ded02)" d="M18.745 11.224c-0.19 0.301-1.778 0.646-2.721 0.736-0.351 0.033-0.608 0.033-0.675-0.022-0.251-0.195-0.195-0.814-0.234-0.925s0-0.084 0.028-0.167c0.028-0.084 0.056-0.251-0.028-0.357-0.045-0.056-0.089-1.36-0.123-2.653-0.034-1.259-0.050-2.508-0.045-2.591 0.056-0.496 0.457-0.624 0.457-0.624s1.45 0.262 1.817 0.763c1.801 2.447 1.784 5.428 1.522 5.84z"></path>
<path fill="#fff" style="fill: var(--color4, #fff)" d="M13.817 13.982c0 0-0.112 1.488 0 1.594s0.279-0.039 0.401 0c0.123 0.039 0.257 0.033 0.312-0.022 0.056-0.050 0.095-0.1 0.229-0.095s0.256 0.039 0.301-0.033c0.045-0.073 0.1-0.173 0.201-0.19 0.106-0.022 0.195-0.022 0.201-0.134s-0.234-0.641-0.234-0.641l0.017 0.301c0 0 0.195-0.022 0.256-0.184 0.056-0.162-0.814-1.020-0.814-1.020l-0.87 0.424z"></path>
<path fill="#ffd648" style="fill: var(--color9, #ffd648)" d="M13.8 14.172c0 0 0.825-0.412 1.070-0.412 0 0 0.034-0.401-0.162-0.446l-1.076 0.429c0 0 0 0.318 0.167 0.429z"></path>
<path fill="#09d191" style="fill: var(--color10, #09d191)" d="M16.526 7.167c-0.457 0.853-1.282 2.552-0.964 2.881s0.803 0.178 0.457 0.34c-0.346 0.162-0.663 0.24-0.401 0.368 0.262 0.123 0.468 0.056 0.206 0.306-0.24 0.229-0.173 0.78 0.206 0.903-0.351 0.033-0.608 0.033-0.675-0.022-0.251-0.195-0.195-0.814-0.234-0.925s0-0.084 0.028-0.167c0.028-0.084 0.056-0.251-0.028-0.357-0.045-0.056-0.089-1.36-0.123-2.653l1.661-2.14c0 0 0.318 0.607-0.134 1.466z"></path>
<path fill="#fff" style="fill: var(--color4, #fff)" d="M16.593 6.559c-0.151 0.379-0.346 0.769-0.546 1.148 0 0 0 0-0.006 0.006-0.563 1.048-1.199 2.040-1.21 2.647-0.017 0.836 0.011 2.786-0.123 2.948s-1.076 0.429-1.076 0.429c0 0-0.742-3.923-0.669-4.219 0.067-0.295 1.527-3.556 1.99-4.274 0.463-0.713 2.208-0.117 1.639 1.315z"></path>
<path fill="#fff" style="fill: var(--color4, #fff)" d="M17.731 19.974l-4.705 0.919c-0.229 0.045-0.451-0.106-0.496-0.329l-0.597-2.998c-0.045-0.234 0.106-0.457 0.34-0.496l4.861-0.88c0.234-0.045 0.457 0.117 0.491 0.351l0.44 2.954c0.034 0.223-0.112 0.435-0.335 0.479z"></path>
<path fill="#e5e5e6" style="fill: var(--color6, #e5e5e6)" d="M17.625 16.541l-0.117 1.683-4.761 0.925-0.814-1.583c-0.045-0.234 0.106-0.457 0.34-0.496l4.861-0.88c0.234-0.045 0.457 0.117 0.491 0.351z"></path>
<path fill="#1631a4" style="fill: var(--color2, #1631a4)" d="M13.031 18.775l0.373-0.084 0.229 1.048-0.385 0.072-0.217-1.037z"></path>
<path fill="#1631a4" style="fill: var(--color2, #1631a4)" d="M16.677 18.062l0.374-0.084 0.229 1.048-0.39 0.072-0.212-1.037z"></path>
<path fill="#ffd648" style="fill: var(--color9, #ffd648)" d="M20.351 10.137c0 0 0.184 0.44-0.056 1.064h-0.178c0 0 0.273-0.691 0.067-1.064h0.167z"></path>
<path fill="#e5e5e6" style="fill: var(--color6, #e5e5e6)" d="M16.047 7.713c-0.563 1.048-1.199 2.040-1.21 2.647-0.017 0.836 0.011 2.786-0.123 2.948 0 0-0.245-2.803-0.457-3.021-0.212-0.212-0.262-0.346 0.128-0.451 0.379-0.095 1.578-1.995 1.661-2.123z"></path>
<path fill="#1631a4" style="fill: var(--color2, #1631a4)" d="M27.403 25.647c0 0-0.011 0.585-0.842 1.076-0.831 0.496-1.009 0.524-1.037 0.841l3.295-0.156 0.903-0.724c0 0-0.095-0.725-0.139-0.752s-1.806-0.217-1.806-0.217l-0.373-0.067z"></path>
<path fill="#1631a4" style="fill: var(--color2, #1631a4)" d="M28.864 12.506v13.787c0 0-0.496 0.067-1.031 0-0.307-0.039-0.624-0.128-0.864-0.295 0 0-0.385-6.381-0.357-6.699s0.909-6.888 0.953-6.899c0.045-0.017 1.299 0.106 1.299 0.106z"></path>
<path fill="#002f7a" style="fill: var(--color11, #002f7a)" d="M28.864 21.294v4.999c0 0-0.496 0.067-1.031 0 0.301-0.006 0.39-0.223 0.39-0.223s-0.858-6.002-0.959-6.359c-0.095-0.357 0.552-5.712 0.552-5.712l1.048 7.295z"></path>
<path fill="#fff" style="fill: var(--color4, #fff)" d="M22.915 10.622c-0.111-0.011-0.201 0.084-0.184 0.195 0.045 0.262 0.128 0.685 0.24 0.769 0.167 0.123 1.578-0.262 1.689-0.323 0.229-0.123-0.039-0.847-0.039-0.847s-0.674-0.245-0.831-0.279c-0.156-0.033-0.184 0.173 0 0.268s0.061 0.245-0.061 0.268c-0.089 0.011-0.541-0.028-0.814-0.050z"></path>
<path fill="#cbcbcb" style="fill: var(--color7, #cbcbcb)" d="M24.789 10.293c0 0 1.884-0.574 1.946-0.658s1.488-3.957 1.522-4.018 0.323 0.167 0.323 0.167l-0.808 4.648-2.815 0.769-0.167-0.908z"></path>
<path fill="#1631a4" style="fill: var(--color2, #1631a4)" d="M24.465 10.36c0 0 0.184 0.284 0.189 0.903l0.301-0.061c0 0 0.017-0.786-0.167-0.908l-0.323 0.067z"></path>
<path fill="#1631a4" style="fill: var(--color2, #1631a4)" d="M29.104 26.444c0 0-0.139 0.964-0.87 1.243s-0.831 0.635-0.831 0.635 3.328 0.084 3.384 0c0.056-0.084-0.702-2.017-0.747-2.029-0.039-0.011-0.937 0.15-0.937 0.15z"></path>
<path fill="#01008a" style="fill: var(--color3, #01008a)" d="M30.319 26.555c0 0-1.093 0.15-1.862 0 0 0-1.065-6.543-1.037-7.15s0.401-5.411 0.401-5.411c0 0-0.251-0.139-0.223-0.591 0.028-0.457 0.234-1.41 0.234-1.41l3.077 1.092c0 0-0.262 2.251-0.786 2.263 0 0-0.965 3.89-0.959 4.096 0.006 0.212 1.154 7.111 1.154 7.111z"></path>
<path fill="#fff" style="fill: var(--color4, #fff)" d="M31.573 8.393c-0.095 0.401-0.925 2.965-0.842 3.171s0.647 0.719 0.251 1.516c0 0-3.808-0.485-3.824-0.619 0-0.022 0.022-0.229 0.067-0.552 0.034-0.268 0.084-0.619 0.139-1.014 0.268-1.917 0.73-4.949 0.903-5.278 0.251-0.485 0.619-0.485 0.619-0.485s2.197-0.022 2.475 0.206c0.273 0.229 0.307 2.658 0.212 3.054z"></path>
<path fill="#fff" style="fill: var(--color4, #fff)" d="M30.509 4.687l-0.19 0.652-0.858 0.206-0.541-0.201c0 0-0.006-0.44-0.006-0.68 0-0.245-0.295-0.262-0.295-0.262l0.758-0.613 0.039-0.028 0.814-0.028 0.279 0.953z"></path>
<path fill="#515bd4" style="fill: var(--color12, #515bd4)" d="M29.065 4.809c0.006 0.268-0.017 0.451-0.034 0.574l-0.106-0.039c0 0-0.006-0.44-0.006-0.68 0-0.245-0.296-0.262-0.296-0.262l0.758-0.613c0.111 0.134 0.268 0.334 0.268 0.334s-0.591 0.173-0.585 0.685z"></path>
<path fill="#e5e5e6" style="fill: var(--color6, #e5e5e6)" d="M29.020 5.294l-0.089 0.050 0.134 0.139-0.045-0.189z"></path>
<path fill="#cbcbcb" style="fill: var(--color7, #cbcbcb)" d="M30.509 4.687l-1.489 0.607-0.262 1.064 1.857-1.181-0.106-0.49z"></path>
<path fill="#e5e5e5" style="fill: var(--color13, #e5e5e5)" d="M28.931 5.344l-0.006-0.412-0.34 0.34 0.346 0.072z"></path>
<path fill="#fff" style="fill: var(--color4, #fff)" d="M23.239 11.107c0 0 0.15-0.39 0.502-0.329s0.881 0.279 0.97 0.217c0.089-0.061-0.418-0.201-0.379-0.34s0.803 0.123 1.048 0.117c0.245-0.006 0.552-0.045 0.608 0s-0.039 1.042-0.039 1.042-1.087 0.44-1.238 0.446c-0.15 0.006-1.343-0.379-1.371-0.44-0.028-0.056-0.145-0.63-0.1-0.713z"></path>
<path fill="#e5e5e5" style="fill: var(--color13, #e5e5e5)" d="M29.912 11.441c-0.312-0.072-1.957 0.295-2.687 0.468 0.034-0.268 0.084-0.619 0.139-1.014l3.083-3.11 0.998-0.346c0 0-0.998 2.859-1.332 3.104-0.329 0.245-0.195 0.496 0 0.524 0.189 0.033 0.206 0.468-0.201 0.373z"></path>
<path fill="#fff" style="fill: var(--color4, #fff)" d="M26.455 10.616c0 0 1.817-0.724 1.845-0.775s1.171-3.132 1.388-3.589c0.217-0.457 0.92-0.663 1.293-0.513s0.663 1.048 0.463 1.7c-0.201 0.646-2.040 3.422-2.118 3.494-0.095 0.089-2.893 0.83-2.893 0.83l0.022-1.148z"></path>
<path fill="#1631a4" style="fill: var(--color2, #1631a4)" d="M25.898 10.756c0 0 0.061 0.502-0.073 1.109l0.636-0.111c0 0 0.256-0.736-0.006-1.137l-0.558 0.139z"></path>
<path fill="#f9a826" style="fill: var(--color14, #f9a826)" d="M22.86 8.081c-0.006-0.028-0.011-0.050-0.017-0.067 0.006 0.022 0.011 0.039 0.017 0.067z"></path>
<path fill="#fff" style="fill: var(--color4, #fff)" d="M28.122 2.14c0 0-0.022 1.811 0 2.051s0.184 0.279 0.212 0.284c0.033 0.006 1.957-0.529 1.957-0.529l0.574-0.981-0.825-1.248-1.416-0.362c0.006 0-0.502 0.463-0.502 0.786z"></path>
<path fill="#cbcbcb" style="fill: var(--color7, #cbcbcb)" d="M28.251 1.884c0 0 0.234-0.184 0.334 0s0.162 0.646 0.703 0.658c0.541 0.011 0.535 0.463 0.535 0.463s-0.362-1.839-0.401-1.867c-0.034-0.028-1.199-0.173-1.199-0.173l0.028 0.92z"></path>
<path fill="#231f20" style="fill: var(--color5, #231f20)" d="M29.817 3.004c0 0 0.217-0.334 0.435-0.19s-0.061 0.808-0.491 0.914c0 0 0.145 0.724 0.173 0.713s0.725-0.223 0.725-0.223c0 0 0.959-1.064 0.758-1.962s-2.258-1.912-2.721-1.845c-0.463 0.067-0.546 0.585-0.546 0.585s-0.401-0.011-0.468 0.184c-0.067 0.201-0.307 1.265 0.44 1.477 0 0-0.011-0.652 0.128-0.786 0 0 0.111-0.256 0.256-0.195s0.151 0.836 0.781 0.853c0.63 0.028 0.53 0.474 0.53 0.474z"></path>
<path fill="#515bd4" style="fill: var(--color12, #515bd4)" d="M30.207 3.004c0 0-0.24-0.167-0.34 0.351-0.006 0 0.128-0.357 0.34-0.351z"></path>
</symbol>

<symbol id="partner-hero-right" viewBox="0 0 42 32">
<path fill="#6457a4" style="fill: var(--color1, #6457a4)" opacity="0.4" d="M28.736 8.049l-0.433 0.548-2.369 2.992-0.433-1.355-11.326 2.964c-0.641 0.166-1.319 0.070-1.888-0.269l-0.067-0.039c-0.717-0.43-1.613-0.433-2.333-0.003l-4.1 2.441-0.887-2.471 5.676-2.414c0.772-0.33 1.655-0.263 2.372 0.172 0.487 0.39 1.095 0.575 1.707 0.532 0.139-0.009 0.278-0.030 0.418-0.067l9.646-2.372-0.62-1.391 4.636 0.732z"></path>
<path fill="#fff" style="fill: var(--color2, #fff)" opacity="0.4" d="M37.998 0.528l-0.361 3.799-1.1-0.902-7.892 8.647c-0.448 0.488-1.069 0.776-1.731 0.801l-0.077 0.003c-0.835 0.030-1.589 0.514-1.959 1.266l-2.113 4.278-1.383-1.054 3.398-5.161c0.469-0.711 1.254-1.137 2.113-1.146 0.636 0.074 1.261-0.096 1.753-0.466 0.114-0.085 0.218-0.181 0.317-0.285l6.837-7.365-1.325-0.882 3.524-1.534z"></path>
<path fill="#6457a4" style="fill: var(--color1, #6457a4)" opacity="0.5" d="M18.418 29.976c0 0 0.136-0.635-0.572-0.699 0 0-0.124 0.529 0.572 0.699z"></path>
<path fill="#6457a4" style="fill: var(--color1, #6457a4)" d="M18.448 30.212c0 0 0.539 0.115 0.59-0.487 0-0.003-0.451-0.106-0.59 0.487z"></path>
<path fill="#6457a4" style="fill: var(--color1, #6457a4)" d="M25.311 28.969c0 0-0.638-0.121-0.421-0.802 0 0 0.536 0.094 0.421 0.802z"></path>
<path fill="#6457a4" style="fill: var(--color1, #6457a4)" opacity="0.5" d="M25.387 28.201c0.024-0.027-0.045-0.185-0.058-0.218-0.109-0.345-0.009-0.811 0.3-1.028 0.012 0.142 0.021 0.278 0.055 0.417 0.054 0.218 0.030 0.339-0.091 0.52-0.067 0.109-0.118 0.212-0.206 0.309z"></path>
<path fill="#6457a4" style="fill: var(--color1, #6457a4)" opacity="0.5" d="M25.302 29.619c0 0-0.136-0.635 0.572-0.699 0 0 0.127 0.529-0.572 0.699z"></path>
<path fill="#6457a4" style="fill: var(--color1, #6457a4)" d="M25.296 30.206c0 0-0.539 0.115-0.59-0.487-0.003-0.003 0.448-0.106 0.59 0.487z"></path>
<path fill="#6457a4" style="fill: var(--color1, #6457a4)" d="M32.331 24.888c0 0 0.269-0.593-0.411-0.805 0 0-0.233 0.49 0.411 0.805z"></path>
<path fill="#6457a4" style="fill: var(--color1, #6457a4)" opacity="0.5" d="M32.482 26.113c-0.006-0.027 0.106-0.106 0.124-0.124 0.209-0.188 0.33-0.541 0.209-0.811-0.067 0.091-0.124 0.178-0.206 0.26-0.124 0.124-0.157 0.215-0.148 0.387 0.009 0.097 0 0.187 0.021 0.287z"></path>
<path fill="#6457a4" style="fill: var(--color1, #6457a4)" opacity="0.5" d="M32.621 29.492c0 0 0.136-0.635-0.572-0.699 0 0-0.124 0.529 0.572 0.699z"></path>
<path fill="#6457a4" style="fill: var(--color1, #6457a4)" d="M32.6 27.254c0 0-0.015-0.65-0.72-0.544-0.003 0.003 0.003 0.548 0.72 0.544z"></path>
<path fill="#6457a4" style="fill: var(--color1, #6457a4)" d="M32.639 28.476c0 0 0.639-0.124 0.418-0.802 0.003 0-0.532 0.094-0.418 0.802z"></path>
<path fill="#6457a4" style="fill: var(--color1, #6457a4)" d="M32.63 30.046c0 0 0.539 0.115 0.59-0.487 0 0-0.451-0.103-0.59 0.487z"></path>
<path fill="#6457a4" style="fill: var(--color1, #6457a4)" d="M40.688 24.888c0 0-0.269-0.593 0.411-0.805-0.003 0 0.233 0.49-0.411 0.805z"></path>
<path fill="#6457a4" style="fill: var(--color1, #6457a4)" opacity="0.5" d="M40.537 26.113c0.006-0.027-0.106-0.106-0.124-0.124-0.209-0.188-0.33-0.541-0.209-0.811 0.067 0.091 0.124 0.178 0.206 0.26 0.124 0.124 0.306 0.215 0.297 0.387-0.009 0.097-0.151 0.187-0.169 0.287z"></path>
<path fill="#6457a4" style="fill: var(--color1, #6457a4)" opacity="0.5" d="M40.906 23.545c0.006-0.027-0.106-0.106-0.124-0.124-0.209-0.188-0.33-0.542-0.209-0.811 0.067 0.091 0.124 0.178 0.206 0.26 0.124 0.124 0.157 0.215 0.148 0.387-0.009 0.1 0 0.191-0.021 0.287z"></path>
<path fill="#6457a4" style="fill: var(--color1, #6457a4)" opacity="0.5" d="M40.398 29.492c0 0-0.136-0.635 0.572-0.699 0 0 0.124 0.529-0.572 0.699z"></path>
<path fill="#6457a4" style="fill: var(--color1, #6457a4)" d="M40.443 27.254c0 0 0.015-0.65 0.72-0.544 0 0.003 0.064 0.548-0.72 0.544z"></path>
<path fill="#6457a4" style="fill: var(--color1, #6457a4)" d="M41.036 22.411c0 0-0.166-0.629 0.539-0.726 0 0.003 0.212 0.505-0.539 0.726z"></path>
<path fill="#6457a4" style="fill: var(--color1, #6457a4)" d="M40.377 28.476c0 0-0.639-0.124-0.418-0.802 0 0 0.536 0.094 0.418 0.802z"></path>
<path fill="#6457a4" style="fill: var(--color1, #6457a4)" d="M40.389 30.046c0 0-0.538 0.115-0.59-0.487-0.003 0 0.448-0.103 0.59 0.487z"></path>
<path fill="#6457a4" style="fill: var(--color1, #6457a4)" opacity="0.5" d="M41.26 20.874c0 0-0.254-0.578 0.409-0.774 0 0 0.221 0.478-0.409 0.774z"></path>
<path fill="#6457a4" style="fill: var(--color1, #6457a4)" opacity="0.2" d="M16.824 25.82h-3.861v5.245h3.861v-5.245z"></path>
<path fill="#6457a4" style="fill: var(--color1, #6457a4)" opacity="0.5" d="M13.892 25.191l-0.929 0.629h3.858l0.929-0.629h-3.858z"></path>
<path fill="#4e4688" style="fill: var(--color3, #4e4688)" d="M16.821 31.065l0.929-0.629v-5.245l-0.929 0.629v5.245z"></path>
<path fill="#6457a4" style="fill: var(--color1, #6457a4)" opacity="0.2" d="M23.232 23.436h-3.861v7.629h3.861v-7.629z"></path>
<path fill="#6457a4" style="fill: var(--color1, #6457a4)" opacity="0.5" d="M20.3 22.844l-0.929 0.593h3.858l0.929-0.593h-3.858z"></path>
<path fill="#4e4688" style="fill: var(--color3, #4e4688)" d="M23.229 31.065l0.929-0.847v-7.375l-0.929 0.593v7.629z"></path>
<path fill="#6457a4" style="fill: var(--color1, #6457a4)" opacity="0.2" d="M30.594 19.852h-3.861v11.198h3.861v-11.198z"></path>
<path fill="#6457a4" style="fill: var(--color1, #6457a4)" opacity="0.5" d="M27.662 19.256l-0.929 0.596h3.861l0.929-0.596h-3.861z"></path>
<path fill="#4e4688" style="fill: var(--color3, #4e4688)" d="M30.594 31.065l0.929-0.847v-10.962l-0.929 0.596v11.213z"></path>
<path fill="#6457a4" style="fill: var(--color1, #6457a4)" opacity="0.2" d="M37.865 15.502h-3.861v15.563h3.861v-15.563z"></path>
<path fill="#4e4688" style="fill: var(--color3, #4e4688)" d="M34.933 14.909l-0.929 0.593h3.858l0.929-0.593h-3.858z"></path>
<path fill="#4e4688" style="fill: var(--color3, #4e4688)" d="M37.862 31.065l0.929-0.847v-15.309l-0.929 0.593v15.563z"></path>
<path fill="#fcb713" style="fill: var(--color4, #fcb713)" d="M35.892 24.462c0.607 0 1.098-0.492 1.098-1.098s-0.492-1.098-1.098-1.098-1.098 0.492-1.098 1.098c0 0.607 0.492 1.098 1.098 1.098z"></path>
<path fill="#f6f7f7" style="fill: var(--color5, #f6f7f7)" d="M35.841 24.008c-0.048-0.003-0.091-0.012-0.127-0.021-0.036-0.012-0.070-0.024-0.097-0.039s-0.051-0.027-0.067-0.042c-0.018-0.015-0.030-0.024-0.039-0.030-0.009-0.009-0.015-0.015-0.015-0.021-0.003-0.006 0-0.018 0.009-0.030l0.067-0.106c0.006-0.012 0.015-0.018 0.027-0.018s0.024 0.006 0.042 0.021c0.027 0.021 0.057 0.042 0.094 0.060s0.073 0.030 0.109 0.036v-0.339c-0.039-0.015-0.082-0.036-0.121-0.054-0.039-0.021-0.079-0.045-0.112-0.076s-0.061-0.067-0.082-0.106c-0.021-0.042-0.030-0.091-0.030-0.148 0-0.042 0.006-0.082 0.021-0.118 0.012-0.036 0.033-0.073 0.064-0.1 0.027-0.030 0.063-0.054 0.109-0.073 0.042-0.021 0.094-0.033 0.154-0.036v-0.054c0-0.009 0.003-0.018 0.009-0.024s0.015-0.009 0.024-0.009h0.021c0.009 0 0.018 0.003 0.024 0.009s0.009 0.015 0.009 0.024v0.058c0.039 0.003 0.076 0.009 0.109 0.021 0.033 0.009 0.063 0.021 0.091 0.033s0.048 0.024 0.067 0.036c0.018 0.012 0.030 0.018 0.039 0.024s0.015 0.015 0.015 0.027c0.003 0.012 0 0.021-0.006 0.030l-0.070 0.1c-0.015 0.021-0.030 0.024-0.048 0.015-0.024-0.015-0.055-0.033-0.088-0.051s-0.070-0.033-0.112-0.042v0.318c0.039 0.015 0.079 0.036 0.121 0.058s0.082 0.048 0.118 0.079c0.036 0.030 0.064 0.070 0.088 0.112s0.036 0.091 0.036 0.148c0 0.094-0.030 0.175-0.094 0.239s-0.151 0.1-0.269 0.106v0.181c0 0.009-0.003 0.018-0.009 0.021-0.006 0.006-0.015 0.009-0.024 0.009s-0.021 0-0.036-0.003c-0.012-0.003-0.018-0.012-0.018-0.027v-0.197h-0.003zM35.841 22.949c-0.045 0.006-0.079 0.021-0.1 0.042-0.021 0.024-0.033 0.051-0.033 0.085 0 0.036 0.012 0.064 0.033 0.088 0.021 0.021 0.054 0.045 0.1 0.070v-0.284zM35.929 23.818c0.039-0.006 0.073-0.018 0.097-0.039s0.036-0.051 0.036-0.091c0-0.033-0.009-0.067-0.030-0.097s-0.054-0.058-0.103-0.082v0.309z"></path>
<path fill="#f37c20" style="fill: var(--color6, #f37c20)" opacity="0.9" d="M29.729 23.273c0 0.647-0.351 1.171-0.784 1.171-0.015 0-0.030 0-0.048-0.003h-0.345c0.067 0 0.13-0.012 0.194-0.036 0.088-0.033 0.169-0.088 0.242-0.163 0.209-0.209 0.345-0.566 0.345-0.971s-0.136-0.759-0.345-0.971c-0.073-0.073-0.154-0.127-0.242-0.163-0.064-0.024-0.127-0.036-0.197-0.036h0.39c0.015 0 0.030 0 0.045 0.003 0.418 0.036 0.744 0.547 0.744 1.171z"></path>
<path fill="#fcb713" style="fill: var(--color4, #fcb713)" d="M29.338 23.273c0 0.405-0.136 0.759-0.345 0.971-0.073 0.073-0.154 0.13-0.242 0.163-0.061 0.024-0.127 0.036-0.194 0.036-0.012 0-0.024 0-0.036 0-0.415-0.027-0.747-0.542-0.747-1.168s0.33-1.14 0.747-1.168c0.012 0 0.024 0 0.036 0 0.067 0 0.133 0.012 0.197 0.036 0.088 0.033 0.169 0.088 0.242 0.163 0.203 0.203 0.342 0.56 0.342 0.965z"></path>
<path fill="#f6f7f7" style="fill: var(--color5, #f6f7f7)" d="M28.518 23.957c-0.033-0.003-0.064-0.012-0.091-0.024s-0.048-0.027-0.070-0.039c-0.021-0.012-0.036-0.030-0.048-0.045s-0.021-0.027-0.027-0.033c-0.006-0.009-0.009-0.018-0.012-0.024s0-0.018 0.006-0.030l0.048-0.112c0.006-0.012 0.012-0.018 0.018-0.018 0.009 0 0.018 0.006 0.030 0.024 0.018 0.024 0.042 0.045 0.067 0.064s0.051 0.030 0.079 0.036v-0.363c-0.030-0.018-0.058-0.036-0.088-0.061-0.030-0.021-0.055-0.048-0.079-0.082-0.024-0.030-0.042-0.070-0.058-0.112s-0.021-0.097-0.021-0.157c0-0.045 0.006-0.088 0.015-0.127s0.024-0.076 0.045-0.109c0.021-0.030 0.045-0.058 0.076-0.079s0.067-0.033 0.109-0.039v-0.061c0-0.009 0.003-0.018 0.006-0.024 0.006-0.006 0.009-0.009 0.018-0.009h0.015c0.006 0 0.012 0.003 0.018 0.009 0.003 0.006 0.006 0.015 0.006 0.024v0.061c0.027 0.003 0.055 0.012 0.079 0.021s0.045 0.021 0.067 0.036c0.018 0.012 0.036 0.024 0.048 0.036s0.021 0.021 0.027 0.027c0.006 0.006 0.009 0.015 0.012 0.027 0 0.012 0 0.024-0.003 0.033l-0.048 0.109c-0.012 0.021-0.021 0.027-0.033 0.015-0.018-0.018-0.039-0.036-0.064-0.055-0.024-0.021-0.051-0.033-0.079-0.045v0.339c0.027 0.018 0.058 0.036 0.088 0.060s0.057 0.052 0.082 0.085c0.024 0.033 0.045 0.073 0.064 0.118s0.024 0.097 0.024 0.157c0 0.103-0.021 0.185-0.067 0.254-0.046 0.066-0.109 0.106-0.191 0.112v0.194c0 0.009-0.003 0.018-0.006 0.024-0.006 0.006-0.012 0.009-0.018 0.009s-0.015-0.003-0.024-0.006c-0.009-0.003-0.015-0.012-0.015-0.027v-0.194h-0.006zM28.518 22.831c-0.030 0.006-0.054 0.021-0.070 0.045s-0.024 0.055-0.024 0.091 0.009 0.066 0.024 0.091c0.015 0.024 0.039 0.048 0.070 0.073v-0.3zM28.582 23.757c0.027-0.006 0.052-0.018 0.070-0.039s0.027-0.054 0.027-0.097c0-0.036-0.006-0.070-0.021-0.103s-0.039-0.060-0.073-0.088v0.327h-0.003z"></path>
<path fill="#f37c20" style="fill: var(--color6, #f37c20)" opacity="0.9" d="M36.824 28.077c0 0.647-0.351 1.171-0.784 1.171-0.015 0-0.030 0-0.048-0.003h-0.345c0.067 0 0.13-0.012 0.194-0.036 0.088-0.033 0.169-0.088 0.242-0.163 0.209-0.209 0.345-0.566 0.345-0.971s-0.136-0.759-0.345-0.971c-0.073-0.073-0.154-0.127-0.242-0.163-0.063-0.024-0.127-0.036-0.197-0.036h0.39c0.015 0 0.030 0 0.045 0.003 0.418 0.036 0.744 0.548 0.744 1.171z"></path>
<path fill="#fcb713" style="fill: var(--color4, #fcb713)" d="M36.434 28.077c0 0.405-0.136 0.759-0.345 0.971-0.073 0.073-0.154 0.13-0.242 0.163-0.061 0.024-0.127 0.036-0.194 0.036-0.012 0-0.024 0-0.036 0-0.415-0.027-0.747-0.541-0.747-1.168s0.33-1.14 0.747-1.168c0.012 0 0.024 0 0.036 0 0.067 0 0.133 0.012 0.197 0.036 0.088 0.033 0.169 0.088 0.242 0.163 0.206 0.203 0.342 0.56 0.342 0.965z"></path>
<path fill="#f6f7f7" style="fill: var(--color5, #f6f7f7)" d="M35.614 28.76c-0.033-0.003-0.063-0.012-0.091-0.024s-0.048-0.027-0.070-0.039c-0.021-0.015-0.036-0.030-0.048-0.045s-0.021-0.027-0.027-0.033c-0.006-0.009-0.009-0.018-0.012-0.024s0-0.018 0.006-0.030l0.048-0.112c0.006-0.012 0.012-0.018 0.018-0.018 0.009 0 0.018 0.006 0.030 0.024 0.018 0.024 0.042 0.045 0.067 0.064s0.051 0.030 0.079 0.036v-0.363c-0.030-0.018-0.057-0.036-0.088-0.060-0.030-0.021-0.054-0.048-0.079-0.082-0.024-0.030-0.042-0.070-0.057-0.112s-0.021-0.097-0.021-0.157c0-0.045 0.006-0.088 0.015-0.127s0.024-0.076 0.045-0.109c0.021-0.030 0.045-0.058 0.076-0.079s0.067-0.033 0.109-0.039v-0.060c0-0.009 0.003-0.018 0.006-0.024 0.006-0.006 0.009-0.009 0.018-0.009h0.015c0.006 0 0.012 0.003 0.018 0.009 0.003 0.006 0.006 0.015 0.006 0.024v0.060c0.027 0.003 0.054 0.012 0.079 0.021s0.045 0.021 0.067 0.036c0.021 0.015 0.036 0.024 0.048 0.036s0.021 0.021 0.027 0.027c0.006 0.006 0.009 0.015 0.012 0.027 0 0.012 0 0.024-0.003 0.033l-0.048 0.109c-0.012 0.021-0.021 0.027-0.033 0.015-0.018-0.018-0.039-0.036-0.063-0.054-0.024-0.021-0.051-0.033-0.079-0.045v0.339c0.027 0.018 0.057 0.036 0.088 0.061s0.057 0.051 0.082 0.085c0.024 0.033 0.045 0.073 0.063 0.118s0.024 0.097 0.024 0.157c0 0.103-0.021 0.185-0.067 0.254-0.045 0.067-0.109 0.106-0.191 0.112v0.194c0 0.009-0.003 0.018-0.006 0.024-0.006 0.006-0.012 0.009-0.018 0.009s-0.015-0.003-0.024-0.006-0.015-0.012-0.015-0.027v-0.194h-0.006zM35.614 27.635c-0.030 0.006-0.054 0.021-0.070 0.045s-0.024 0.054-0.024 0.091 0.009 0.067 0.024 0.091c0.015 0.024 0.039 0.048 0.070 0.073v-0.3zM35.678 28.558c0.027-0.006 0.051-0.018 0.070-0.039s0.027-0.054 0.027-0.097c0-0.036-0.006-0.070-0.021-0.103s-0.039-0.060-0.073-0.088v0.327h-0.003z"></path>
<path fill="#f37c20" style="fill: var(--color6, #f37c20)" opacity="0.9" d="M22.031 27.172c0 0.69-0.188 1.249-0.418 1.249h-0.387c0.070 0 0.139-0.048 0.197-0.136 0.082-0.118 0.148-0.306 0.191-0.535 0.030-0.172 0.048-0.369 0.048-0.578s-0.018-0.405-0.048-0.578c-0.042-0.23-0.109-0.417-0.191-0.535-0.058-0.085-0.127-0.136-0.197-0.136h0.387c0.23 0 0.418 0.56 0.418 1.249z"></path>
<path fill="#fcb713" style="fill: var(--color4, #fcb713)" d="M21.662 27.172c0 0.209-0.018 0.405-0.048 0.578-0.042 0.23-0.109 0.417-0.191 0.535-0.058 0.085-0.127 0.136-0.197 0.136h-0.003c-0.242 0-0.439-0.56-0.439-1.249s0.197-1.249 0.439-1.249h0.003c0.070 0 0.139 0.048 0.197 0.136 0.082 0.118 0.148 0.306 0.191 0.535 0.030 0.172 0.048 0.369 0.048 0.578z"></path>
<path fill="#f6f7f7" style="fill: var(--color5, #f6f7f7)" d="M21.202 27.904c-0.018-0.003-0.036-0.012-0.051-0.027-0.015-0.012-0.027-0.027-0.039-0.042s-0.021-0.030-0.027-0.048c-0.006-0.015-0.012-0.027-0.015-0.036s-0.006-0.018-0.006-0.027 0-0.018 0.003-0.033l0.027-0.118c0.003-0.012 0.006-0.021 0.012-0.021 0.003 0 0.009 0.009 0.018 0.024 0.012 0.024 0.024 0.048 0.036 0.066 0.015 0.021 0.027 0.033 0.042 0.039v-0.387c-0.015-0.018-0.033-0.039-0.048-0.064s-0.030-0.051-0.046-0.085c-0.012-0.033-0.024-0.073-0.033-0.121-0.009-0.045-0.012-0.103-0.012-0.169 0-0.048 0.003-0.094 0.009-0.136s0.015-0.082 0.024-0.115c0.012-0.033 0.024-0.061 0.042-0.085 0.018-0.021 0.039-0.036 0.061-0.042v-0.064c0-0.009 0-0.018 0.003-0.027 0.003-0.006 0.006-0.012 0.009-0.012h0.009c0.003 0 0.006 0.003 0.009 0.012 0.003 0.006 0.003 0.015 0.003 0.027v0.066c0.015 0.003 0.030 0.012 0.042 0.024 0.015 0.012 0.027 0.024 0.036 0.036 0.012 0.015 0.018 0.027 0.027 0.039 0.006 0.012 0.012 0.021 0.015 0.027s0.006 0.015 0.006 0.030c0 0.012 0 0.024-0.003 0.036l-0.027 0.115c-0.006 0.024-0.012 0.030-0.018 0.015-0.009-0.018-0.021-0.039-0.033-0.060s-0.027-0.036-0.045-0.048v0.363c0.015 0.018 0.030 0.039 0.048 0.064s0.033 0.054 0.045 0.091c0.015 0.036 0.027 0.079 0.036 0.127s0.015 0.106 0.015 0.169c0 0.109-0.012 0.2-0.036 0.269-0.024 0.073-0.061 0.112-0.106 0.121v0.206c0 0.009 0 0.018-0.003 0.027-0.003 0.006-0.006 0.009-0.009 0.009s-0.009-0.003-0.015-0.006c-0.006-0.003-0.009-0.012-0.009-0.030v-0.2h0.003zM21.202 26.703c-0.018 0.006-0.030 0.024-0.039 0.048-0.009 0.027-0.012 0.058-0.012 0.097s0.003 0.073 0.012 0.097c0.009 0.027 0.021 0.051 0.039 0.079v-0.321zM21.238 27.69c0.015-0.006 0.027-0.021 0.039-0.042 0.009-0.024 0.015-0.058 0.015-0.103 0-0.039-0.003-0.076-0.012-0.109s-0.021-0.067-0.042-0.094v0.348z"></path>
<path fill="#f37c20" style="fill: var(--color6, #f37c20)" opacity="0.9" d="M29.211 27.995c0 0.69-0.188 1.249-0.418 1.249h-0.387c0.070 0 0.139-0.048 0.197-0.136 0.082-0.118 0.148-0.305 0.191-0.535 0.030-0.172 0.048-0.369 0.048-0.578s-0.018-0.405-0.048-0.578c-0.042-0.23-0.109-0.417-0.191-0.535-0.058-0.085-0.127-0.136-0.197-0.136h0.387c0.233 0 0.418 0.56 0.418 1.249z"></path>
<path fill="#fcb713" style="fill: var(--color4, #fcb713)" d="M28.845 27.995c0 0.209-0.018 0.405-0.048 0.578-0.042 0.23-0.109 0.417-0.191 0.535-0.058 0.085-0.127 0.136-0.197 0.136h-0.003c-0.242 0-0.439-0.56-0.439-1.249s0.197-1.249 0.439-1.249h0.003c0.070 0 0.139 0.048 0.197 0.136 0.082 0.118 0.148 0.306 0.191 0.535 0.030 0.172 0.048 0.369 0.048 0.578z"></path>
<path fill="#f6f7f7" style="fill: var(--color5, #f6f7f7)" d="M28.385 28.727c-0.018-0.003-0.036-0.012-0.051-0.027-0.015-0.012-0.027-0.027-0.039-0.042s-0.021-0.030-0.027-0.048c-0.006-0.015-0.012-0.027-0.015-0.036s-0.006-0.018-0.006-0.027 0-0.018 0.003-0.033l0.027-0.118c0.003-0.012 0.006-0.021 0.012-0.021 0.003 0 0.009 0.009 0.018 0.024 0.012 0.024 0.024 0.048 0.036 0.066 0.015 0.021 0.027 0.033 0.042 0.039v-0.387c-0.015-0.018-0.033-0.039-0.048-0.064s-0.030-0.051-0.045-0.085c-0.012-0.033-0.024-0.073-0.033-0.121-0.009-0.045-0.012-0.103-0.012-0.169 0-0.048 0.003-0.094 0.009-0.136s0.015-0.082 0.024-0.115c0.012-0.033 0.024-0.061 0.042-0.085 0.018-0.021 0.039-0.036 0.061-0.042v-0.064c0-0.009 0-0.018 0.003-0.027 0.003-0.006 0.006-0.012 0.009-0.012h0.009c0.003 0 0.006 0.003 0.009 0.012 0.003 0.006 0.003 0.015 0.003 0.027v0.066c0.015 0.003 0.030 0.012 0.042 0.024 0.015 0.012 0.027 0.024 0.036 0.036 0.012 0.015 0.018 0.027 0.027 0.039 0.006 0.012 0.012 0.021 0.015 0.027s0.006 0.015 0.006 0.030c0 0.012 0 0.024-0.003 0.036l-0.027 0.115c-0.006 0.024-0.012 0.030-0.018 0.015-0.009-0.018-0.021-0.039-0.033-0.060s-0.027-0.036-0.045-0.048v0.363c0.015 0.018 0.030 0.039 0.048 0.064s0.033 0.054 0.045 0.091c0.015 0.036 0.027 0.079 0.036 0.127s0.015 0.106 0.015 0.169c0 0.109-0.012 0.2-0.036 0.269-0.024 0.073-0.061 0.112-0.106 0.121v0.206c0 0.009 0 0.018-0.003 0.027-0.003 0.006-0.006 0.009-0.009 0.009s-0.009-0.003-0.015-0.006c-0.006-0.003-0.009-0.012-0.009-0.030v-0.2h0.003zM28.385 27.523c-0.018 0.006-0.030 0.024-0.039 0.048-0.009 0.027-0.012 0.058-0.012 0.097s0.003 0.073 0.012 0.097c0.009 0.027 0.021 0.052 0.039 0.079v-0.321zM28.422 28.509c0.015-0.006 0.027-0.021 0.039-0.042 0.009-0.024 0.015-0.058 0.015-0.103 0-0.039-0.003-0.076-0.012-0.109s-0.021-0.067-0.042-0.094v0.348z"></path>
<path fill="#f37c20" style="fill: var(--color6, #f37c20)" opacity="0.9" d="M36.727 18.751c0 0.69-0.188 1.249-0.417 1.249h-0.387c0.070 0 0.139-0.048 0.197-0.136 0.082-0.118 0.148-0.306 0.191-0.535 0.030-0.172 0.048-0.369 0.048-0.578s-0.018-0.405-0.048-0.578c-0.042-0.23-0.109-0.417-0.191-0.535-0.057-0.085-0.127-0.136-0.197-0.136h0.387c0.23 0 0.417 0.56 0.417 1.249z"></path>
<path fill="#fcb713" style="fill: var(--color4, #fcb713)" d="M36.358 18.751c0 0.209-0.018 0.405-0.048 0.578-0.042 0.23-0.109 0.417-0.191 0.535-0.057 0.085-0.127 0.136-0.197 0.136h-0.003c-0.242 0-0.439-0.56-0.439-1.249s0.197-1.249 0.439-1.249h0.003c0.070 0 0.139 0.048 0.197 0.136 0.082 0.118 0.148 0.306 0.191 0.535 0.030 0.172 0.048 0.369 0.048 0.578z"></path>
<path fill="#f6f7f7" style="fill: var(--color5, #f6f7f7)" d="M35.901 19.483c-0.018-0.003-0.036-0.012-0.051-0.027-0.015-0.012-0.027-0.027-0.039-0.042s-0.021-0.030-0.027-0.048c-0.006-0.015-0.012-0.027-0.015-0.036s-0.006-0.018-0.006-0.027c0-0.009 0-0.018 0.003-0.033l0.027-0.118c0.003-0.012 0.006-0.021 0.012-0.021 0.003 0 0.009 0.009 0.018 0.024 0.012 0.024 0.024 0.048 0.036 0.067 0.015 0.021 0.027 0.033 0.042 0.039v-0.387c-0.015-0.018-0.033-0.039-0.048-0.064s-0.030-0.052-0.045-0.085c-0.012-0.033-0.024-0.073-0.033-0.121-0.009-0.045-0.012-0.103-0.012-0.169 0-0.048 0.003-0.094 0.009-0.136s0.015-0.082 0.024-0.115c0.012-0.033 0.024-0.060 0.042-0.085 0.018-0.021 0.039-0.036 0.060-0.042v-0.064c0-0.009 0-0.018 0.003-0.027 0.003-0.006 0.006-0.012 0.009-0.012h0.009c0.003 0 0.006 0.003 0.009 0.012 0.003 0.006 0.003 0.015 0.003 0.027v0.067c0.015 0.003 0.030 0.012 0.042 0.024 0.015 0.012 0.027 0.024 0.036 0.036 0.012 0.015 0.018 0.027 0.027 0.039 0.006 0.012 0.012 0.021 0.015 0.027s0.006 0.015 0.006 0.030c0 0.012 0 0.024-0.003 0.036l-0.027 0.115c-0.006 0.024-0.012 0.030-0.018 0.015-0.009-0.018-0.021-0.039-0.033-0.061s-0.027-0.036-0.045-0.048v0.363c0.015 0.018 0.030 0.039 0.048 0.064s0.033 0.054 0.045 0.091c0.015 0.036 0.027 0.079 0.036 0.127s0.015 0.106 0.015 0.169c0 0.109-0.012 0.2-0.036 0.269-0.024 0.073-0.060 0.112-0.106 0.121v0.206c0 0.009 0 0.018-0.003 0.027-0.003 0.006-0.006 0.009-0.009 0.009s-0.009-0.003-0.015-0.006c-0.006-0.003-0.009-0.012-0.009-0.030v-0.2h0.003zM35.901 18.282c-0.018 0.006-0.030 0.024-0.039 0.048-0.009 0.027-0.012 0.058-0.012 0.097s0.003 0.073 0.012 0.097c0.009 0.027 0.021 0.052 0.039 0.079v-0.321zM35.935 19.268c0.015-0.006 0.027-0.021 0.039-0.042 0.009-0.024 0.015-0.057 0.015-0.103 0-0.039-0.003-0.076-0.012-0.109s-0.021-0.067-0.042-0.094v0.348z"></path>
<path fill="#fcb713" style="fill: var(--color4, #fcb713)" d="M14.893 29.429c0.607 0 1.098-0.492 1.098-1.098s-0.492-1.098-1.098-1.098-1.098 0.492-1.098 1.098c0 0.606 0.492 1.098 1.098 1.098z"></path>
<path fill="#f6f7f7" style="fill: var(--color5, #f6f7f7)" d="M14.842 28.975c-0.048-0.003-0.091-0.012-0.127-0.021-0.036-0.012-0.070-0.024-0.097-0.039s-0.052-0.027-0.067-0.042c-0.018-0.015-0.030-0.024-0.039-0.030-0.009-0.009-0.015-0.015-0.015-0.021-0.003-0.006 0-0.018 0.009-0.030l0.067-0.106c0.006-0.012 0.015-0.018 0.027-0.018s0.024 0.006 0.042 0.021c0.027 0.021 0.057 0.042 0.094 0.060s0.073 0.030 0.109 0.036v-0.339c-0.039-0.015-0.082-0.036-0.121-0.054-0.039-0.021-0.079-0.045-0.112-0.076s-0.061-0.067-0.082-0.106c-0.021-0.042-0.030-0.091-0.030-0.148 0-0.042 0.006-0.082 0.021-0.118 0.012-0.036 0.033-0.073 0.064-0.1 0.027-0.030 0.063-0.054 0.109-0.073 0.042-0.021 0.094-0.033 0.154-0.036v-0.054c0-0.009 0.003-0.018 0.009-0.024s0.015-0.009 0.024-0.009h0.021c0.009 0 0.018 0.003 0.024 0.009s0.009 0.015 0.009 0.024v0.058c0.039 0.003 0.076 0.009 0.109 0.021 0.033 0.009 0.063 0.021 0.091 0.033s0.048 0.024 0.067 0.036 0.030 0.018 0.039 0.024c0.009 0.006 0.015 0.015 0.015 0.027 0.003 0.012 0 0.021-0.006 0.030l-0.070 0.1c-0.015 0.021-0.030 0.024-0.048 0.015-0.024-0.015-0.055-0.033-0.088-0.052s-0.070-0.033-0.112-0.042v0.318c0.039 0.015 0.079 0.036 0.121 0.058s0.082 0.048 0.118 0.079c0.036 0.030 0.064 0.070 0.088 0.112s0.036 0.091 0.036 0.148c0 0.094-0.030 0.175-0.094 0.239s-0.151 0.1-0.269 0.106v0.181c0 0.009-0.003 0.018-0.009 0.021-0.006 0.006-0.015 0.009-0.024 0.009s-0.021 0-0.036-0.003c-0.012-0.003-0.018-0.012-0.018-0.027v-0.197h-0.003zM14.842 27.916c-0.045 0.006-0.079 0.021-0.1 0.042-0.021 0.024-0.033 0.051-0.033 0.085 0 0.036 0.012 0.064 0.033 0.088 0.021 0.021 0.054 0.045 0.1 0.070v-0.284zM14.929 28.785c0.039-0.006 0.073-0.018 0.097-0.039s0.036-0.052 0.036-0.091c0-0.033-0.009-0.066-0.030-0.097s-0.054-0.058-0.103-0.082v0.308z"></path>
<path fill="#f28389" style="fill: var(--color7, #f28389)" d="M19.011 12.017c-0.027 0.067-0.067 0.124-0.118 0.172-0.048 0.048-0.109 0.088-0.175 0.115l-0.769 0.302c-0.036 0.015-0.030 0.070 0.009 0.076l0.284 0.045c0.085 0.012 0.121 0.112 0.067 0.178-0.009 0.012-0.024 0.018-0.039 0.018h-0.003l-0.923-0.057c-0.121-0.006-0.242 0.009-0.357 0.048l-0.333 0.112 0.064-0.659 0.009-0.091 1.295-0.384c0.070-0.021 0.142-0.030 0.215-0.030l0.678 0.009c0.076-0.003 0.124 0.076 0.097 0.145z"></path>
<path fill="#f16b6c" style="fill: var(--color8, #f16b6c)" d="M17.486 12.873l-0.142-0.009c-0.121-0.006-0.242 0.009-0.357 0.048l-0.136 0.045c0.057-0.088 0.094-0.194 0.094-0.305v-0.342c0.073 0.076 0.109 0.254 0.2 0.302 0.055 0.030 0.121 0.033 0.172 0.063 0.033 0.021 0.061 0.051 0.085 0.082 0.033 0.036 0.064 0.076 0.085 0.115z"></path>
<path fill="#f28389" style="fill: var(--color7, #f28389)" d="M15.226 23.043l-0.345 1.146-0.175 0.581-0.021 0.079-0.233-0.052-0.057-0.015-0.366-0.082 0.012-0.209 0.061-0.974 0.021-0.351 1.104-0.124z"></path>
<path fill="#f16b6c" style="fill: var(--color8, #f16b6c)" d="M15.093 24.317c-0.109 0.118-0.157 0.284-0.278 0.39-0.033 0.027-0.070 0.048-0.109 0.067-0.079 0.033-0.169 0.039-0.254 0.024-0.021-0.003-0.039-0.009-0.061-0.012-0.027-0.009-0.054-0.018-0.079-0.030-0.115-0.054-0.206-0.151-0.272-0.26l0.061-0.974c0.030 0.006 0.061 0.018 0.091 0.042 0.139 0.109 0.239 0.272 0.375 0.387 0.024 0.021 0.178 0.142 0.312 0.242 0.109 0.076 0.203 0.136 0.215 0.124z"></path>
<path fill="#f28389" style="fill: var(--color7, #f28389)" d="M4.536 28.93l-1.483 1.071-0.575-0.26 0.13-0.151 1.337-1.528 0.59 0.868z"></path>
<path fill="#e96924" style="fill: var(--color9, #e96924)" d="M6.109 21.969l-1.337 3.019-4.772-2.111 0.103-0.23 0.109-0.251 0.281-0.632 0.166-0.375 0.678-1.534 4.772 2.114z"></path>
<path fill="#f16b6c" style="fill: var(--color8, #f16b6c)" d="M4.533 28.933l-1.159 0.835c-0.097 0.021-0.191 0.042-0.287 0.064-0.148 0.033-0.333 0.054-0.424-0.070-0.036-0.048-0.048-0.112-0.054-0.172l0.427-0.487c0.427 0.042 0.877 0.018 1.259-0.139 0.012-0.006 0.021-0.009 0.033-0.015l0.121 0.042 0.085-0.058z"></path>
<path fill="#a04323" style="fill: var(--color10, #a04323)" d="M3.156 19.746l0.557 0.248-0.079 0.127-0.472-0.209-0.278 0.629-0.136-0.061 0.309-0.699c0.018-0.036 0.064-0.052 0.1-0.036z"></path>
<path fill="#a04323" style="fill: var(--color10, #a04323)" d="M4.981 20.635l-0.309 0.699-0.136-0.060 0.278-0.629-0.436-0.194 0.033-0.136c0-0.003 0-0.009 0-0.012l0.209 0.091 0.324 0.145c0.036 0.015 0.054 0.060 0.036 0.097z"></path>
<path fill="#a04323" style="fill: var(--color10, #a04323)" d="M4.412 20.315l-0.033 0.136-0.139-0.064-0.003-0.003c0.021-0.045 0.042-0.091 0.061-0.136l0.054 0.024 0.061 0.027c0 0.006 0 0.009 0 0.015z"></path>
<path fill="#fcb713" style="fill: var(--color4, #fcb713)" opacity="0.5" d="M1.331 19.867l0.599 1.748c0.036 0.103 0.112 0.188 0.212 0.233l1.921 0.85c0.1 0.045 0.215 0.045 0.315 0.003l1.713-0.738z"></path>
<path fill="#a04323" style="fill: var(--color10, #a04323)" d="M2.415 22.281l-0.048-0.021c-0.064-0.027-0.094-0.103-0.064-0.166l0.091-0.206c0.027-0.064 0.103-0.094 0.166-0.064l0.048 0.021c0.064 0.027 0.094 0.103 0.064 0.166l-0.091 0.206c-0.027 0.060-0.103 0.091-0.166 0.064z"></path>
<path fill="#a04323" style="fill: var(--color10, #a04323)" d="M3.625 22.816l-0.048-0.021c-0.064-0.027-0.094-0.103-0.064-0.166l0.091-0.206c0.027-0.064 0.103-0.094 0.166-0.064l0.048 0.021c0.064 0.027 0.094 0.103 0.064 0.166l-0.091 0.206c-0.027 0.064-0.103 0.091-0.166 0.064z"></path>
<path fill="#f6f7f7" style="fill: var(--color5, #f6f7f7)" opacity="0.15" d="M4.269 21.156l-4.058 1.24 0.281-0.632 3.020-0.883 0.118-0.006 0.638 0.281z"></path>
<path fill="#a04323" style="fill: var(--color10, #a04323)" d="M1.262 19.822l-1.21 2.738c-0.045 0.106-0.051 0.218-0.021 0.321 0 0.003 0.003 0.009 0.003 0.012 0.039 0.121 0.127 0.224 0.254 0.278l4.115 1.824c0.251 0.112 0.542-0.003 0.654-0.254l1.198-2.707-4.993-2.211zM4.971 24.538c-0.112 0.251-0.402 0.363-0.654 0.254l-3.207-1.419-0.687-0.308c-0.109-0.048-0.191-0.133-0.236-0.236-0.051-0.115-0.054-0.251 0-0.375l1.15-2.595 4.772 2.111-1.138 2.568z"></path>
<path fill="#f6f7f7" style="fill: var(--color5, #f6f7f7)" opacity="0.15" d="M6.040 21.939l-4.445 1.618-0.23-0.079h-0.003l-0.251-0.112-0.687-0.302c-0.109-0.048-0.191-0.133-0.236-0.236l4.566-1.458 1.286 0.569z"></path>
<path fill="#4e4688" style="fill: var(--color3, #4e4688)" d="M16.479 19.090l-1.289 4.283c-0.036 0.121-0.142 0.209-0.266 0.221l-0.366 0.082-0.581 0.136 0.248-3.518-2.993 0.992c-0.309 0.13-0.545 0.387-0.657 0.702l-1.014 2.623-0.239 0.62c-0.127 0.324-0.342 0.605-0.62 0.811-0.012 0.009-0.027 0.018-0.039 0.027l-4.212 2.922-0.121-0.042-0.384-0.139-0.523-0.191 3.307-3.5c0.088-0.088 0.166-0.181 0.23-0.284 0.006-0.009 0.012-0.021 0.018-0.030 0.085-0.139 0.145-0.287 0.185-0.445l0.52-2.139 0.487-1.99 0.027-0.112 4.288-1.452 2.744-1.047c0.109-0.042 0.221-0.060 0.333-0.060 0.33 0 0.645 0.175 0.817 0.475 0.178 0.321 0.218 0.702 0.1 1.056z"></path>
<path fill="#000" style="fill: var(--color11, #000)" opacity="0.2" d="M12.963 18.482c0 0-0.154 1.395-2.164 2.248-0.85 0.36-1.48 0.765-1.973 1.116l-1.849 2.955c0.085-0.139 0.145-0.287 0.185-0.445l0.52-2.139 0.487-1.99 4.793-1.745z"></path>
<path fill="#fff" style="fill: var(--color2, #fff)" d="M11.786 15.042l0.085 4.637c0 0-0.735 0.526-0.89 0.508l-0.091 0.036-0.067 0.027c0 0-0.572 0.306-0.602 0.318l-0.266-2.172-0.424-3.442-0.172-1.077 0.303-0.027 0.551-0.052 1.328-0.079 0.027-0.003h0.012l0.064-0.003 0.109-0.006 0.272-0.091 0.039-0.015 0.145-0.061 0.067-0.027 0.142-0.060 0.070 0.563-0.702 1.025z"></path>
<path fill="#f28389" style="fill: var(--color7, #f28389)" d="M11.87 13.79c0 0-0.070 0.505-0.091 0.623-0.003 0.012-0.003 0.018-0.003 0.021s-0.003 0.003-0.006 0.006c-0.048 0.036-0.396 0.154-0.66 0.242-0.172 0.057-0.309 0.1-0.309 0.1l-0.877-0.817c0 0-0.082-0.057 0.227-0.052 0.015 0-0.015-0.097-0.009-0.115 0-0.003 0.003-0.003 0.003-0.003 0.006 0 0.012 0 0.018 0 0.015 0 0.030 0 0.045-0.003 0.064-0.012 0.121-0.051 0.169-0.106 0.076-0.082 0.133-0.2 0.179-0.315 0.073-0.185 0.106-0.36 0.106-0.36s0.042-0.052 0.109-0.112c0.142-0.133 0.396-0.309 0.536-0.063 0.039 0.070 0.070 0.169 0.088 0.312 0.012 0.1 0.027 0.185 0.045 0.26 0.030 0.127 0.070 0.218 0.109 0.278 0.006 0.009 0.012 0.015 0.015 0.024 0.142 0.194 0.306 0.079 0.306 0.079z"></path>
<path fill="#f16b6c" style="fill: var(--color8, #f16b6c)" d="M4.378 20.451l0.191 0.085-0.054 0.157c-0.006 0.015-0.018 0.027-0.033 0.030-0.082 0.024-0.157-0.048-0.139-0.13l0.036-0.142z"></path>
<path fill="#f28389" style="fill: var(--color7, #f28389)" d="M5.226 19.244l-0.124 0.145-0.094 0.106c-0.088 0.1-0.154 0.215-0.197 0.339l-0.073 0.209-0.121 0.351-0.209-0.091c-0.003-0.030-0.036-0.046-0.061-0.027-0.003 0-0.003 0.003-0.006 0.003l-0.106 0.109-0.469 0.487c-0.048 0.051-0.109 0.091-0.172 0.118s-0.133 0.042-0.206 0.042c-0.076 0-0.127-0.076-0.1-0.148l0.251-0.629c0.021-0.051 0.045-0.097 0.076-0.142 0.012-0.015 0.021-0.030 0.033-0.045l0.051-0.061 0.802-0.986 0.723 0.221z"></path>
<path fill="#f16b6c" style="fill: var(--color8, #f16b6c)" d="M11.58 13.642l-0.487 0.572c-0.094 0.109-0.26 0.121-0.369 0.027l-0.514-0.445 0.064 0.717 0.62 0.372 0.318 0.088 0.269-0.735 0.1-0.596z"></path>
<path fill="#6457a4" style="fill: var(--color1, #6457a4)" opacity="0.0225" d="M10.373 13.975l0.796 0.787-0.33 0.526-0.999-1.261 0.533-0.051z"></path>
<path fill="#6457a4" style="fill: var(--color1, #6457a4)" opacity="0.0225" d="M12.415 13.451l-0.272 0.989-0.012 0.157-0.439 0.43-0.557-0.3h-0.003l-0.012-0.006v-0.006l0.012-0.024 0.445-0.974 0.064-0.003 0.109-0.009 0.13-0.039 0.142-0.048 0.039-0.015 0.354-0.151z"></path>
<path fill="#fff" style="fill: var(--color2, #fff)" d="M11.099 14.682l-0.345 0.55-1.092-1.382 0.548-0.052 0.89 0.883z"></path>
<path fill="#fff" style="fill: var(--color2, #fff)" d="M12.061 13.602l-0.281 0.814-0.009 0.027-0.172 0.502-0.418-0.221-0.070-0.036-0.012-0.006 0.439-0.962 0.012-0.024c0.006 0.009 0.036 0.003 0.042 0.009h0.021c0.018 0 0.039 0 0.057 0 0.070-0.003 0.139-0.015 0.206-0.039l0.145-0.048 0.039-0.015z"></path>
<path fill="#6457a4" style="fill: var(--color1, #6457a4)" d="M16.948 12.214v0.508c0 0.112-0.033 0.218-0.094 0.305-0.064 0.097-0.16 0.175-0.275 0.218-0.454 0.163-1.135 0.514-1.8 0.88-0.729 0.402-1.443 0.829-1.822 1.059-0.194 0.118-0.333 0.306-0.384 0.526-0.342 1.479 0.324 2.949 0.324 2.949s-0.106 0.172-0.272 0.378c-0.209 0.26-0.511 0.572-0.814 0.659-0.133 0.039-0.266-0.066-0.263-0.206l0.067-3.527 0.006-0.287c0-0.003 0-0.006 0-0.006 0.006-0.296 0.064-0.59 0.169-0.865l0.505-1.325 0.475-0.13 4.179-1.137z"></path>
<path fill="#4e4688" style="fill: var(--color3, #4e4688)" d="M12.769 13.354l-1.156 2.614 0.006-0.287c0-0.003 0-0.006 0-0.006 0.006-0.296 0.064-0.59 0.169-0.865l0.505-1.325 0.475-0.13z"></path>
<path fill="#fcb713" style="fill: var(--color4, #fcb713)" d="M11.026 15.076l-0.46 2.608 0.46 0.602 0.415-0.671-0.133-2.553-0.281 0.015z"></path>
<path fill="#f6f7f7" style="fill: var(--color5, #f6f7f7)" d="M11.096 15.275l-0.29 0.659-0.293 0.656-0.027-0.018 1.074-1.222-0.091 0.175-0.814 1.594-0.045-0.036 1.089-1.035 0.194-0.181-0.151 0.218-0.514 0.753-0.257 0.378-0.257 0.375-0.033-0.030 1.238-0.832-0.067 0.076-0.753 0.847 0.732-0.862 0.018 0.018-1.241 0.859 0.067-0.1 0.254-0.378 0.257-0.378 0.511-0.756 0.042 0.036-0.542 0.517-0.548 0.517-0.124 0.118 0.079-0.151 0.82-1.588 0.042 0.027-0.956 1.062-0.073 0.079 0.045-0.097 0.306-0.65 0.309-0.65z"></path>
<path fill="#e96924" style="fill: var(--color9, #e96924)" d="M11.065 14.7l-0.242 0.257 0.185 0.29 0.26-0.015 0.127-0.36-0.33-0.172z"></path>
<path fill="#444445" style="fill: var(--color12, #444445)" d="M13.665 25.224c0.009 0.067 0.024 0.127 0.042 0.188 0.006 0.027 0.018 0.054 0.039 0.073 0.018 0.018 0.036 0.021 0.061 0.027 0.287 0.073 0.566 0.088 0.859 0.039-0.027-0.054 0.006-0.106 0.061-0.124s0.109-0.003 0.16 0.009c0.097 0.024 0.185 0.055 0.284 0.076 0.502 0.109 0.98 0.103 1.48-0.021 0.124-0.030 0.236-0.079 0.345-0.145 0.027-0.015 0.048-0.033 0.064-0.064s0.006-0.073 0-0.106c-0.012-0.054-0.027-0.109-0.073-0.145-0.030-0.024-0.064-0.030-0.1-0.036-0.194-0.033-0.384-0.006-0.578-0.054-0.3-0.076-0.536-0.272-0.79-0.445-0.157-0.109-0.324-0.215-0.49-0.305-0.106-0.058-0.161-0.009-0.224 0.073-0.063 0.079-0.109 0.166-0.194 0.227-0.103 0.076-0.221 0.091-0.327 0.015-0.060-0.042-0.088-0.118-0.133-0.178-0.030-0.039-0.070-0.085-0.118-0.103-0.063-0.024-0.091-0.006-0.133 0.045-0.076 0.088-0.13 0.191-0.166 0.302-0.073 0.212-0.097 0.427-0.070 0.653z"></path>
<path fill="#444445" style="fill: var(--color12, #444445)" d="M16.285 25.56c0.009-0.003 0.018-0.003 0.027-0.006-0.003-0.012-0.006-0.024-0.009-0.036-0.009 0.003-0.018 0.003-0.027 0.006 0.003 0.012 0.006 0.024 0.009 0.036z"></path>
<path fill="#000" style="fill: var(--color11, #000)" d="M13.662 25.188c0 0.009 0.003 0.027 0.006 0.039 0 0.012 0.003 0.024 0.006 0.033 0 0.009 0.003 0.015 0.003 0.024 0 0.006 0.003 0.009 0.003 0.015 0.003 0.009 0.006 0.024 0.006 0.033 0.003 0.009 0.003 0.015 0.006 0.018 0 0.006 0.003 0.012 0.003 0.015s0 0.003 0 0.006 0 0.003 0.003 0.006c0 0.003 0 0.006 0.003 0.012s0.003 0.015 0.006 0.024c0.003 0.009 0.006 0.021 0.012 0.033 0 0.003 0 0.003 0.003 0.009s0.006 0.021 0.009 0.027c0.312 0.109 0.608 0.115 0.932 0.073-0.009-0.039 0-0.124 0.045-0.13 0.067-0.012 0.133 0.009 0.191 0.018 0.061 0.006 0.1 0.024 0.154 0.039 0 0 0 0 0.003 0 0.033 0.009 0.073 0.021 0.106 0.030 0.148 0.036 0.315 0.076 0.463 0.085 0.188 0.009 0.357-0.006 0.533-0.015 0.036-0.003 0.064-0.006 0.088-0.009 0.027-0.003 0.051-0.006 0.067-0.009 0.188-0.030 0.363-0.070 0.539-0.136 0.012-0.003 0.015-0.006 0.021-0.009 0.009-0.003 0.018-0.009 0.024-0.012s0.006-0.003 0.012-0.006c0.003-0.003 0.006-0.003 0.009-0.003 0.055-0.033 0.106-0.064 0.145-0.115 0.003-0.003 0-0.006 0.003-0.015s0.003-0.027 0.003-0.039c0-0.003 0-0.009 0-0.012s0-0.006 0-0.009c0-0.015-0.003-0.030-0.006-0.045-0.009 0.006-0.009 0.009-0.018 0.015-0.121 0.079-0.206 0.133-0.36 0.169-0.269 0.067-0.608 0.106-0.881 0.118-0.133 0.006-0.296-0.018-0.39-0.033-0.206-0.033-0.39-0.088-0.554-0.133-0.13-0.036-0.148-0.042-0.263-0.054-0.039-0.003-0.060 0.003-0.118 0.003-0.26 0-0.542-0.012-0.802-0.054-0.006-0.006-0.015-0.009-0.015-0.006z"></path>
<path fill="#232323" style="fill: var(--color13, #232323)" d="M13.665 25.227c-0.003 0.012 0.003 0.021 0.006 0.033 0 0 0 0 0 0.003s0.003 0.015 0.003 0.021c0 0.006 0.003 0.009 0.003 0.015s0.003 0.009 0.003 0.015 0.003 0.015 0.006 0.021c0.003 0.006 0.003 0.015 0.006 0.018s0 0.006 0.003 0.009c0 0.003 0 0.003 0.003 0.006 0 0.003 0 0.003 0 0.006s0 0.003 0.003 0.006c0 0.003 0 0.006 0.003 0.009 0 0.003 0-0.003 0 0.003 0.003 0.006 0.003 0.015 0.006 0.024s0.006 0.021 0.012 0.033c0 0.003 0 0.003 0.003 0.009s0.006 0.021 0.009 0.027c0.312 0.109 0.608 0.115 0.932 0.073 0-0.045-0.006-0.121 0.048-0.133 0.067-0.012 0.127 0.009 0.191 0.018 0.051 0.006 0.1 0.027 0.151 0.039 0 0 0 0 0.003 0 0.036 0.009 0.070 0.021 0.106 0.030 0.154 0.039 0.309 0.073 0.469 0.088 0.003 0 0.009 0 0.012 0 0.145 0.003 0.294-0.003 0.439-0.012 0.027-0.003 0.054-0.003 0.082-0.006s0.061-0.006 0.088-0.009c0.024-0.003 0.045-0.006 0.070-0.009 0.172-0.024 0.336-0.061 0.499-0.121 0.015-0.006 0.027-0.012 0.036-0.015s0.015-0.006 0.021-0.009c0.009-0.003 0.018-0.009 0.024-0.012s0.006-0.003 0.012-0.006c0.003-0.003 0.003-0.003 0.009-0.003 0.057-0.030 0.112-0.054 0.145-0.115 0.003-0.006 0-0.006 0.003-0.015 0-0.009 0.003-0.027 0.003-0.039 0-0.003 0-0.009 0-0.012s0.003-0.006 0-0.006c-0.003 0 0.015-0.006-0.006-0.003-0.006 0.003 0.058-0.039-0.027 0.024-0.088 0.060-0.185 0.124-0.369 0.166-0.327 0.070-0.905 0.136-1.244 0.079s-0.511-0.166-0.829-0.185c-0.312-0.027-0.632-0.012-0.938-0.066 0.003 0 0 0 0 0z"></path>
<path fill="#232323" style="fill: var(--color13, #232323)" d="M15.178 24.229c0.018 0.012 0.033 0.021 0.051 0.033-0.030 0.054-0.063 0.109-0.094 0.163-0.006 0.009-0.012 0.012-0.021 0.015s-0.012 0-0.018-0.003c-0.012-0.012-0.021-0.021-0.012-0.039 0.027-0.058 0.063-0.112 0.094-0.169z"></path>
<path fill="#232323" style="fill: var(--color13, #232323)" d="M15.262 24.501c-0.006 0.009-0.012 0.012-0.021 0.012-0.009 0.003-0.015 0-0.018-0.003-0.012-0.012-0.021-0.021-0.012-0.039 0.027-0.054 0.064-0.106 0.091-0.16 0.018 0.012 0.033 0.021 0.051 0.033-0.027 0.051-0.060 0.106-0.091 0.157z"></path>
<path fill="#232323" style="fill: var(--color13, #232323)" d="M15.389 24.58c-0.006 0.009-0.012 0.012-0.021 0.012s-0.012 0-0.018-0.006c-0.012-0.012-0.021-0.024-0.009-0.039 0.027-0.051 0.061-0.103 0.091-0.154 0.018 0.012 0.033 0.024 0.051 0.036-0.030 0.052-0.063 0.103-0.094 0.151z"></path>
<path fill="#444445" style="fill: var(--color12, #444445)" d="M1.961 29.749c-0.003 0.006-0.024 0.024-0.024 0.030 0 0.009-0.009 0.015-0.009 0.021-0.003 0.006-0.003 0.009-0.006 0.015s-0.003 0.009-0.006 0.015-0.006 0.015-0.009 0.018c-0.003 0.006-0.006 0.012-0.006 0.018-0.003 0.006-0.003 0.006-0.003 0.009-0.003 0.003-0.003 0.006-0.003 0.012-0.003 0.003-0.003 0.009-0.006 0.012 0 0.003 0 0-0.003 0.006s-0.006 0.018-0.009 0.024c-0.003 0.009-0.009 0.024-0.009 0.030-0.003 0.006 0 0.003-0.003 0.012-0.003 0.006-0.006 0.021-0.009 0.030 0.197 0.275 0.427 0.469 0.726 0.632 0.012-0.039 0.058-0.103 0.103-0.085 0.067 0.024 0.109 0.079 0.16 0.115s0.082 0.076 0.127 0.115c0 0 0 0 0 0.003 0.027 0.024 0.058 0.054 0.088 0.076 0.133 0.091 0.278 0.185 0.43 0.224 0.191 0.048 0.369 0.036 0.554 0.033 0.036 0 0.064-0.003 0.091-0.003s0.051 0 0.070 0c0.191-0.009 0.369-0.033 0.551-0.073 0.012-0.003 0.015-0.006 0.024-0.006 0.009-0.003 0.018-0.006 0.024-0.009s0.009-0.003 0.012-0.003 0.006-0.003 0.009-0.003c0.058-0.024 0.109-0.048 0.157-0.094 0.003-0.003 0.003-0.009 0.003-0.015 0.003-0.006 0.006-0.027 0.006-0.036s0.003-0.012 0-0.021c-0.003-0.006 0.006 0 0.006-0.003-0.091-0.127 0.036-0.148-0.166-0.23-0.176-0.070-0.436-0.042-0.666-0.127-0.233-0.085-0.424-0.557-0.499-0.756-0.076-0.197 0.015-0.103-0.139-0.097-0.157 0.006-0.393 0.124-0.536-0.003-0.145-0.127 0.027-0.272-0.051-0.414s-0.067-0.148-0.29-0.064c-0.197 0.070-0.59 0.336-0.687 0.59z"></path>
<path fill="#444445" style="fill: var(--color12, #444445)" d="M4.173 31.108c0.009 0 0.018-0.003 0.027-0.003 0-0.012-0.003-0.024-0.003-0.039-0.009 0-0.018 0.003-0.027 0.003 0.003 0.012 0.003 0.027 0.003 0.039z"></path>
<path fill="#000" style="fill: var(--color11, #000)" d="M1.973 29.716c-0.006 0.006-0.015 0.024-0.021 0.033s-0.012 0.021-0.015 0.030c-0.003 0.009-0.006 0.015-0.009 0.021s-0.003 0.009-0.006 0.015-0.009 0.024-0.012 0.030c-0.003 0.009-0.006 0.015-0.009 0.018-0.003 0.006-0.003 0.012-0.006 0.015 0 0.003 0 0.003-0.003 0.006 0 0.003 0 0.003-0.003 0.006s-0.003 0.006-0.003 0.012c-0.003 0.006-0.006 0.015-0.009 0.024s-0.006 0.021-0.009 0.033c0 0.003 0 0.003-0.003 0.009s-0.006 0.021-0.009 0.027c0.197 0.275 0.427 0.469 0.723 0.632 0.012-0.039 0.058-0.103 0.103-0.085 0.067 0.024 0.109 0.079 0.16 0.115s0.082 0.076 0.127 0.115c0 0 0 0 0 0.003 0.027 0.024 0.058 0.054 0.088 0.076 0.133 0.091 0.278 0.185 0.43 0.224 0.191 0.048 0.369 0.036 0.554 0.033 0.036 0 0.064-0.003 0.091-0.003s0.051 0 0.070 0c0.191-0.009 0.369-0.033 0.551-0.073 0.012-0.003 0.015-0.006 0.024-0.006 0.009-0.003 0.018-0.006 0.024-0.009s0.009-0.003 0.012-0.003 0.006-0.003 0.009-0.003c0.058-0.024 0.109-0.048 0.157-0.094 0.003-0.003 0.003-0.009 0.003-0.015 0.003-0.006 0.006-0.027 0.006-0.036 0-0.006 0-0.009 0-0.015 0-0.003 0-0.006 0-0.009 0-0.015 0-0.030 0-0.045-0.009 0.003-0.009 0.009-0.021 0.015-0.133 0.057-0.221 0.1-0.378 0.118-0.272 0.030-0.608 0.064-0.884 0.058-0.133-0.003-0.281-0.070-0.369-0.112-0.191-0.094-0.333-0.236-0.457-0.354-0.1-0.094-0.109-0.127-0.203-0.203-0.033-0.027-0.051-0.033-0.094-0.067-0.209-0.154-0.415-0.342-0.599-0.532-0.003 0-0.003-0.012-0.009-0.006z"></path>
<path fill="#232323" style="fill: var(--color13, #232323)" d="M1.952 29.749c-0.009 0.009-0.012 0.018-0.015 0.030 0 0 0 0 0 0.003s-0.006 0.015-0.009 0.018c-0.003 0.006-0.003 0.009-0.006 0.015s-0.003 0.009-0.006 0.015c-0.003 0.006-0.006 0.015-0.009 0.018-0.003 0.006-0.006 0.012-0.006 0.018-0.003 0.003-0.003 0.006-0.003 0.009s-0.003 0.006-0.003 0.006c0 0.003 0 0.003-0.003 0.006 0 0.003 0 0.003-0.003 0.006 0 0.003-0.003 0.006-0.003 0.009s0 0-0.003 0.006c-0.003 0.006-0.006 0.018-0.009 0.024-0.003 0.009-0.009 0.024-0.009 0.030-0.003 0.006 0 0.003-0.003 0.012-0.003 0.006-0.006 0.021-0.009 0.030 0.197 0.275 0.427 0.469 0.723 0.632 0.024-0.039 0.051-0.103 0.106-0.085 0.064 0.024 0.106 0.076 0.16 0.118 0.042 0.033 0.082 0.076 0.121 0.112 0 0 0 0 0.003 0.003 0.030 0.024 0.058 0.054 0.088 0.076 0.136 0.097 0.278 0.172 0.436 0.23 0.003 0 0.009 0.003 0.012 0.003 0.151 0.027 0.303 0.036 0.457 0.030 0.027 0 0.057-0.006 0.085-0.009s0.064-0.003 0.088-0.003c0.027 0 0.048 0 0.070 0 0.172-0.009 0.339-0.030 0.508-0.064 0.015-0.003 0.027-0.006 0.039-0.009s0.015-0.006 0.024-0.006c0.009-0.003 0.018-0.006 0.024-0.009s0.006-0.003 0.012-0.003c0.003-0.003 0.006-0.003 0.009-0.003 0.061-0.021 0.112-0.042 0.154-0.091 0.003-0.003 0.003-0.009 0.003-0.015 0.003-0.006 0.006-0.027 0.006-0.033s0-0.009 0-0.015c0-0.006 0.003-0.003 0-0.009-0.003-0.003 0.015 0-0.003-0.006-0.006-0.003 0.051-0.018-0.045 0.027s-0.2 0.091-0.384 0.106c-0.327 0.027-0.896 0.082-1.21-0.070s-0.427-0.363-0.687-0.554c-0.242-0.181-0.478-0.393-0.699-0.611z"></path>
<path fill="#232323" style="fill: var(--color13, #232323)" d="M3.725 29.777c0.006 0.015 0.012 0.030 0.015 0.048-0.054 0.030-0.112 0.060-0.163 0.088-0.009 0.006-0.015 0.006-0.024 0.003s-0.012-0.006-0.012-0.012c-0.003-0.018 0-0.027 0.018-0.036 0.054-0.030 0.112-0.060 0.166-0.091z"></path>
<path fill="#232323" style="fill: var(--color13, #232323)" d="M3.622 30.025c-0.009 0.006-0.015 0.006-0.024 0.003s-0.012-0.003-0.012-0.012c0-0.018 0-0.027 0.015-0.036 0.051-0.030 0.109-0.058 0.16-0.088 0.006 0.015 0.012 0.030 0.015 0.045-0.048 0.030-0.103 0.061-0.154 0.088z"></path>
<path fill="#232323" style="fill: var(--color13, #232323)" d="M3.67 30.14c-0.009 0.006-0.015 0.006-0.024 0.003s-0.012-0.003-0.012-0.012c-0.003-0.018 0-0.027 0.015-0.036 0.048-0.030 0.103-0.060 0.154-0.088 0.006 0.015 0.012 0.030 0.018 0.045-0.048 0.027-0.103 0.058-0.151 0.088z"></path>
<path fill="#6457a4" style="fill: var(--color1, #6457a4)" opacity="0.07" d="M9.553 32h-7.616c-0.523 0-0.95-0.426-0.95-0.95s0.427-0.95 0.95-0.95h7.616c0.523 0 0.95 0.427 0.95 0.95 0 0.526-0.424 0.95-0.95 0.95z"></path>
<path fill="#c9bda3" style="fill: var(--color14, #c9bda3)" opacity="0.39" d="M10.89 20.227l-0.067 0.027c0 0-0.191 0.103-0.357 0.191 0.091-0.121 0.145-0.266 0.151-0.423l0.169-3.406 0.036-0.732 0.067 4.344z"></path>
<path fill="#6457a4" style="fill: var(--color1, #6457a4)" d="M10.799 16.385l-0.012 0.23-0.169 3.406c-0.009 0.154-0.064 0.302-0.151 0.423-0.073 0.097-0.166 0.175-0.275 0.23-0.726 0.351-1.468 0.669-2.051 0.908-0.297 0.121-0.551 0.221-0.741 0.293-0.154 0.058-0.309-0.082-0.266-0.239l1.21-4.604 0.067-0.257c0.009-0.033-0.030-0.054-0.054-0.033l-3.253 2.84-0.118-0.048-0.523-0.218c-0.045-0.018-0.076-0.052-0.094-0.091-0.024-0.057-0.021-0.127 0.021-0.181l3.601-4.646c0.13-0.166 0.315-0.284 0.52-0.33l0.85-0.188 1.171 1.6c0.188 0.26 0.284 0.578 0.269 0.904z"></path>
<path fill="#4e4688" style="fill: var(--color3, #4e4688)" d="M10.799 16.385l-0.012 0.23-2.278-2.547 0.85-0.188 1.171 1.6c0.188 0.26 0.284 0.578 0.269 0.904z"></path>
<path fill="#000" style="fill: var(--color11, #000)" opacity="0.2" d="M8.339 17.027l-0.203 4.553c-0.297 0.121-0.551 0.221-0.741 0.293-0.154 0.057-0.309-0.082-0.266-0.239l1.21-4.607z"></path>
<path fill="#000" style="fill: var(--color11, #000)" opacity="0.2" d="M14.778 14.129c-0.729 0.402-1.443 0.829-1.822 1.059-0.194 0.118-0.333 0.306-0.384 0.526-0.342 1.479 0.324 2.949 0.324 2.949s-0.106 0.172-0.272 0.378c-0.387-0.402-0.46-1.694-0.46-2.601 0-0.569 0.315-1.092 0.82-1.361l1.794-0.95z"></path>
<path fill="#231f20" style="fill: var(--color15, #231f20)" d="M11.265 20.073c-0.012 0.127-0.030 0.254-0.051 0.381s-0.048 0.251-0.079 0.378c-0.033 0.124-0.067 0.248-0.112 0.369s-0.097 0.239-0.169 0.345c0.015-0.030 0.027-0.058 0.042-0.085 0.012-0.030 0.024-0.058 0.036-0.088s0.024-0.060 0.033-0.091c0.012-0.030 0.021-0.060 0.030-0.091 0.021-0.060 0.039-0.121 0.057-0.181 0.015-0.061 0.033-0.124 0.048-0.185 0.033-0.124 0.061-0.248 0.085-0.375 0.012-0.064 0.027-0.124 0.039-0.187 0.015-0.064 0.027-0.127 0.039-0.191z"></path>
<path fill="#000" style="fill: var(--color11, #000)" opacity="0.4" d="M14.224 20.294l-2.993 0.992c-0.309 0.13-0.545 0.387-0.657 0.702l-1.014 2.623c0.012-0.054 0.805-3.642 1.707-3.739 0.908-0.094 2.956-0.578 2.956-0.578z"></path>
<path fill="#000" style="fill: var(--color11, #000)" opacity="0.2" d="M14.457 23.7l-0.478 0.112 0.245-3.518 0.233 3.406z"></path>
<path fill="#000" style="fill: var(--color11, #000)" opacity="0.2" d="M8.742 25.999l-0.042 0.042c-0.012 0.009-0.027 0.018-0.039 0.027l-4.212 2.925-0.502-0.185 4.796-2.81z"></path>
<path fill="#f16b6c" style="fill: var(--color8, #f16b6c)" d="M11.441 13.415c-0.436 0.115-0.714 0.051-0.884-0.036 0.039-0.097 0.067-0.191 0.082-0.26 0.082 0.079 0.179 0.139 0.284 0.181 0.045 0.018 0.094 0.030 0.142 0.039 0.051 0.009 0.106 0.015 0.16 0.015 0.067 0 0.13-0.009 0.194-0.021 0.009 0.027 0.015 0.054 0.021 0.082z"></path>
<path fill="#f16b6c" style="fill: var(--color8, #f16b6c)" d="M4.981 19.528c-0.073 0.091-0.13 0.197-0.169 0.305l-0.073 0.209c-0.042-0.097-0.094-0.191-0.154-0.281-0.076-0.121-0.303-0.333-0.257-0.493 0.006-0.021 0.018-0.039 0.033-0.052 0.018 0.039 0.048 0.073 0.094 0.091l0.526 0.221z"></path>
<path fill="#000" style="fill: var(--color11, #000)" opacity="0.35" d="M9.804 12.169l0.042 0.16c0.039 0.142 0.142 0.26 0.278 0.315l0.051 0.018c0.045 0.154 0.13 0.293 0.239 0.402l1.54-0.445c0.006 0.015 0.027 0.018 0.042 0.012 0.015-0.009 0.021-0.024 0.027-0.039s0.012-0.030 0.018-0.045c0.015-0.088 0.018-0.181 0.006-0.272l-0.042-0.36-0.036-0.293c-0.015-0.127-0.054-0.245-0.112-0.348-0.185-0.333-0.554-0.535-0.953-0.487-0.333 0.039-0.605 0.245-0.744 0.523-0.061 0.121-0.097 0.257-0.1 0.399 0 0.003 0 0.009 0 0.012v0.015c0 0.039 0.003 0.076 0.006 0.115l0.015 0.133 0.003 0.021-0.118-0.018c-0.106-0.015-0.191 0.082-0.163 0.181z"></path>
<path fill="#fff" style="fill: var(--color2, #fff)" opacity="0.19" d="M12.218 11.040c0 0.003-0.003 0.009-0.003 0.012 0.003-0.003 0.003-0.006 0.003-0.012z"></path>
<path fill="#f97c15" style="fill: var(--color16, #f97c15)" d="M11.952 11.536c-0.079 0.024-0.157 0.042-0.236 0.054-0.015 0.003-0.030 0.003-0.042 0.006-0.172 0.021-0.351 0.018-0.523 0.006-0.148-0.009-0.3-0.027-0.439-0.082-0.266-0.106-0.357 0.018-0.439 0.26-0.030 0.091-0.082 0.154-0.133 0.215l-0.054 0.009-0.003-0.021-0.006-0.048-0.009-0.088c-0.006-0.039-0.006-0.079-0.006-0.115v-0.015c0-0.003 0-0.009 0-0.012 0.003-0.142 0.039-0.278 0.1-0.402 0.139-0.278 0.412-0.484 0.744-0.523 0.366-0.045 0.711 0.127 0.908 0.411 0.003 0.006 0.006 0.012 0.012 0.015 0.012 0.018 0.024 0.039 0.036 0.060 0.039 0.088 0.073 0.175 0.091 0.269z"></path>
<path fill="#f28389" style="fill: var(--color7, #f28389)" d="M10.137 11.996c-0.036 0.042-0.070 0.088-0.1 0.142-0.048 0.094 0.018 0.312 0.115 0.517l-0.030-0.012c-0.094-0.036-0.172-0.106-0.227-0.191-0.024-0.039-0.042-0.079-0.054-0.124l-0.042-0.16c-0.027-0.1 0.057-0.197 0.16-0.181l0.118 0.018z"></path>
<path fill="#f97c15" style="fill: var(--color16, #f97c15)" d="M12.603 10.901c-0.015 0.042-0.033 0.085-0.055 0.127-0.121 0.239-0.333 0.424-0.596 0.508-0.021-0.094-0.054-0.181-0.097-0.263-0.012-0.021-0.024-0.039-0.036-0.060-0.003-0.006-0.006-0.012-0.012-0.015-0.197-0.284-0.539-0.457-0.908-0.411-0.333 0.039-0.605 0.245-0.744 0.523-0.061 0.121-0.097 0.257-0.1 0.402 0 0.003 0 0.009 0 0.012v0.015c0 0.039 0.003 0.076 0.006 0.115l0.009 0.088 0.006 0.048 0.003 0.021-0.048-0.006-0.070-0.012c-0.082-0.012-0.151 0.045-0.163 0.121-0.003 0.018-0.003 0.039 0.003 0.060l0.042 0.16c0.012 0.045 0.030 0.085 0.054 0.124 0.051 0.085 0.13 0.151 0.227 0.191l0.030 0.012c0.018 0.039 0.039 0.082 0.061 0.121 0.039 0.073 0.085 0.157 0.142 0.218 0.024 0.027 0.091 0.109 0.118 0.121-0.315-0.148-0.611-0.354-0.814-0.632-0.012-0.015-0.021-0.030-0.033-0.046-0.206-0.302-0.293-0.699-0.175-1.047 0.027-0.082 0.070-0.163 0.13-0.227 0.109-0.115 0.272-0.166 0.427-0.209-0.085-0.145-0.021-0.333 0.082-0.463 0.221-0.281 0.623-0.402 0.962-0.287 0.097 0.033 0.178 0.060 0.26-0.015 0.139-0.13 0.224-0.306 0.366-0.433 0.166-0.151 0.393-0.175 0.596-0.076 0.421 0.2 0.463 0.82 0.327 1.213z"></path>
<path fill="#f28389" style="fill: var(--color7, #f28389)" d="M12.040 12.55c-0.048 0.287-0.224 0.535-0.475 0.678-0.021 0.012-0.042 0.024-0.064 0.033-0.067 0.030-0.136 0.054-0.212 0.070-0.012 0.003-0.024 0.006-0.036 0.006-0.015 0.003-0.027 0.003-0.042 0.006-0.094 0.012-0.182 0.009-0.269-0.006-0.097-0.015-0.191-0.045-0.275-0.091-0.064-0.033-0.124-0.073-0.182-0.118-0.024-0.018-0.048-0.039-0.070-0.063-0.082-0.082-0.151-0.182-0.2-0.293-0.015-0.036-0.030-0.073-0.039-0.112l-0.021-0.009c-0.1-0.206-0.163-0.424-0.115-0.517 0.054-0.103 0.13-0.169 0.188-0.263 0.018-0.030 0.033-0.060 0.045-0.097 0.082-0.242 0.172-0.366 0.439-0.26 0.139 0.054 0.29 0.073 0.439 0.082 0.188 0.012 0.381 0.015 0.569-0.012 0.018-0.003 0.033-0.006 0.051-0.009 0.015-0.003 0.027-0.006 0.042-0.009 0.009 0 0.015-0.003 0.024-0.006 0.003 0 0.006 0 0.009-0.003 0.006 0 0.012-0.003 0.018-0.006 0.003 0 0.009-0.003 0.012-0.003 0.006-0.003 0.012-0.003 0.021-0.006 0.003 0 0.009-0.003 0.012-0.003 0.006-0.003 0.012-0.003 0.018-0.006 0.009-0.003 0.021-0.006 0.030-0.009 0.006 0.027 0.012 0.057 0.015 0.088l0.015 0.121 0.003 0.036 0.003 0.027 0.003 0.024 0.006 0.060 0.003 0.024 0.042 0.36c0.009 0.106 0.006 0.2-0.009 0.287z"></path>
<path fill="#ff8500" style="fill: var(--color17, #ff8500)" d="M11.716 11.591c0.018-0.003 0.033-0.006 0.051-0.009-0.018 0.003-0.036 0.006-0.051 0.009z"></path>
<path fill="#ea6400" style="fill: var(--color18, #ea6400)" d="M12.548 11.028c-0.048 0.185-0.245 0.414-0.312 0.487-0.088 0.1-0.178 0.203-0.245 0.315l-0.003-0.024-0.021-0.185c-0.003-0.030-0.009-0.057-0.015-0.088 0.263-0.082 0.475-0.263 0.596-0.505z"></path>
<path fill="#ea6400" style="fill: var(--color18, #ea6400)" d="M10.472 13.115c-0.315-0.148-0.611-0.354-0.814-0.632-0.003-0.052-0.003-0.103 0.003-0.154 0.009-0.073 0.030-0.151 0.088-0.194 0.015-0.012 0.033-0.018 0.051-0.027-0.003 0.018-0.003 0.039 0.003 0.060l0.042 0.16c0.012 0.045 0.030 0.085 0.054 0.124 0.051 0.085 0.13 0.151 0.227 0.191l0.030 0.012c0.018 0.039 0.039 0.082 0.061 0.121 0.039 0.073 0.085 0.157 0.142 0.218 0.021 0.024 0.088 0.109 0.112 0.121z"></path>
<path fill="#ea6400" style="fill: var(--color18, #ea6400)" d="M10.596 11.234c0.378 0.021 0.714 0.278 1.074 0.36-0.172 0.021-0.351 0.018-0.523 0.006-0.148-0.009-0.3-0.027-0.439-0.082-0.266-0.106-0.357 0.018-0.439 0.26-0.030 0.091-0.082 0.154-0.133 0.215l-0.054 0.009-0.048-0.006c0.015-0.018 0.027-0.039 0.039-0.060 0.036-0.067 0.054-0.148 0.067-0.224 0.021-0.139 0.036-0.293 0.136-0.387 0.085-0.076 0.209-0.097 0.321-0.091z"></path>
<path fill="#ff8500" style="fill: var(--color17, #ff8500)" d="M11.792 11.615h-0.015l-0.073-0.003c0.006-0.003 0.012-0.003 0.018-0.006 0.024-0.006 0.048 0 0.070 0.009z"></path>
<path fill="#ff8500" style="fill: var(--color17, #ff8500)" d="M11.925 11.618c-0.042 0.003-0.088 0-0.13-0.003h-0.003l0.133 0.003z"></path>
<path fill="#f16b6c" style="fill: var(--color8, #f16b6c)" d="M11.982 11.742c-0.287 0.142-0.645 0.121-0.959 0.039-0.154-0.039-0.315-0.094-0.472-0.060-0.118 0.027-0.218 0.097-0.324 0.154 0.018-0.030 0.033-0.060 0.045-0.097 0.082-0.242 0.172-0.366 0.439-0.26 0.139 0.054 0.29 0.073 0.439 0.082 0.188 0.012 0.381 0.015 0.569-0.012 0.018-0.003 0.033-0.006 0.051-0.009 0.015-0.003 0.027-0.006 0.042-0.009 0.009 0 0.015-0.003 0.024-0.006 0.003 0 0.006 0 0.009-0.003 0.006 0 0.012-0.003 0.018-0.006 0.003 0 0.009-0.003 0.012-0.003 0.006-0.003 0.012-0.003 0.021-0.006 0.003 0 0.009-0.003 0.012-0.003 0.006-0.003 0.012-0.003 0.018-0.006 0.009-0.003 0.021-0.006 0.030-0.009 0.006 0.027 0.012 0.057 0.015 0.088l0.009 0.127z"></path>
<path fill="#fff" style="fill: var(--color2, #fff)" d="M38.673 15.472c-0.027 0.009-0.057 0.015-0.088 0.021-0.012 0.003-0.024 0.003-0.036 0.006h-3.304c-1.253-0.139-2.378-0.387-2.756-0.617-0.324-0.197-0.563-0.427-0.72-0.665-0.288-0.439-0.303-0.901-0.088-1.234 0.039-0.063 0.082-0.124 0.127-0.185 0.012-0.015 0.021-0.030 0.033-0.045s0.021-0.030 0.033-0.046c0.073-0.097 0.145-0.181 0.218-0.257 0.012-0.012 0.027-0.027 0.039-0.039 0.006-0.006 0.012-0.012 0.021-0.018 0.018-0.018 0.036-0.033 0.054-0.052 0.009-0.009 0.018-0.015 0.027-0.024 0.009-0.006 0.015-0.015 0.024-0.021 0.003-0.003 0.006-0.006 0.009-0.009 0.124-0.106 0.26-0.206 0.427-0.321 0.106-0.254 0.221-0.514 0.351-0.774 0.076-0.151 0.157-0.306 0.242-0.454 0.003-0.003 0.006-0.009 0.006-0.012 0.009-0.015 0.015-0.030 0.024-0.042 0-0.003 0.003-0.003 0.003-0.006 0.015-0.027 0.030-0.051 0.045-0.079 0.003-0.003 0.003-0.006 0.006-0.009 0.018-0.027 0.033-0.054 0.051-0.085 0.003-0.006 0.009-0.012 0.012-0.018 0.345-0.551 0.762-1.035 1.271-1.316 0.003 0 0.003-0.003 0.006-0.003 0.015-0.009 0.030-0.015 0.045-0.024 0.012-0.006 0.024-0.012 0.036-0.018 0.018-0.009 0.039-0.018 0.057-0.027 0.003 0 0.006-0.003 0.009-0.003s0.006-0.003 0.009-0.003c0.269-0.124 0.505-0.197 0.711-0.242 0 0 0 0 0.003 0 0.009-0.003 0.018-0.003 0.027-0.006l0.154-0.033 0.1 0.006-0.021-0.569c-0.003-0.091 0.003-0.178 0.015-0.266 0.055-0.339 0.206-1.183 0.427-1.304 0.166-0.091 0.327-0.073 0.448 0.042 0.015 0.018 0.030 0.033 0.045 0.051 0.057 0.073 0.1 0.172 0.124 0.293 0.076 0.387 0.303 0.523 0.626 0.572 0.194 0.030 0.242-0.124 0.312-0.287 0.045-0.112 0.103-0.227 0.215-0.293 0.281-0.172 0.427 0.327 0.672 0.408 0.185 0.061-0.796 0.853-1.292 1.243-0.009 0-0.018 0-0.027 0-0.085 0-0.163 0.036-0.239 0.076-0.003 0-0.003-0.003-0.006-0.003-0.018-0.006-0.033-0.009-0.048-0.009-0.151-0.076-0.345-0.085-0.463 0.057-0.012 0.015-0.021 0.030-0.030 0.045-0.003 0.006-0.006 0.012-0.009 0.018-0.024 0.057-0.027 0.124 0 0.181 0.036 0.082 0.115 0.142 0.209 0.142 0.070 0 0.124-0.033 0.163-0.085-0.012 0.051-0.027 0.103-0.039 0.154-0.033 0.13-0.060 0.263-0.082 0.396-0.009 0.067-0.021 0.133-0.027 0.2-0.003 0.033-0.009 0.067-0.012 0.103-0.003 0.039-0.003 0.076-0.003 0.115 0 0.064-0.012 0.13-0.015 0.197-0.006 0.073-0.006 0.142-0.006 0.215 0 0.042 0.045 0.070 0.082 0.070s0.079-0.030 0.082-0.070c0.006-0.070 0.009-0.136 0.015-0.206 0.003-0.064 0.003-0.13 0.012-0.194 0.003-0.018 0.009-0.033 0.012-0.048 0.003-0.018 0.003-0.033 0.006-0.051 0.003-0.033 0.006-0.070 0.009-0.103 0.006-0.067 0.015-0.133 0.024-0.2 0.018-0.133 0.033-0.269 0.051-0.402 0.012-0.088 0.027-0.172 0.042-0.257 0.021 0.070 0.042 0.136 0.061 0.206 0.048 0.194 0.079 0.393 0.085 0.593 0.006 0.194-0.024 0.39-0.045 0.584-0.006 0.039 0.021 0.076 0.057 0.088 0.036 0.009 0.082-0.009 0.094-0.045 0.042-0.13 0.057-0.266 0.067-0.402 0.012-0.212-0.006-0.424-0.051-0.632-0.024-0.109-0.054-0.215-0.097-0.321 0.027 0.012 0.054 0.024 0.085 0.033 0.061 0.015 0.124 0.012 0.178-0.015 1.138 0.635 1.558 1.984 1.776 3.188 0.048 0.275 0.121 0.638 0.163 1.019 0.091 0.889 0.033 1.881-0.835 2.127z"></path>
<path fill="#fcb713" style="fill: var(--color4, #fcb713)" opacity="0.3" d="M38.673 15.472c-0.027 0.009-0.057 0.015-0.088 0.021-0.012 0.003-0.024 0.003-0.036 0.006h-3.304c-1.253-0.139-2.378-0.387-2.756-0.617-0.324-0.197-0.563-0.427-0.72-0.665-0.288-0.439-0.303-0.901-0.088-1.234 0.039-0.063 0.082-0.124 0.127-0.185 0.012-0.015 0.021-0.030 0.033-0.045s0.021-0.030 0.033-0.046c0.073-0.097 0.145-0.181 0.218-0.257 0.012-0.012 0.027-0.027 0.039-0.039 0.006-0.006 0.012-0.012 0.021-0.018 0.018-0.018 0.036-0.033 0.054-0.052 0.009-0.009 0.018-0.015 0.027-0.024 0.009-0.006 0.015-0.015 0.024-0.021 0.003-0.003 0.006-0.006 0.009-0.009 0.124-0.106 0.26-0.206 0.427-0.321 0.106-0.254 0.221-0.514 0.351-0.774 0.076-0.151 0.157-0.306 0.242-0.454 0.003-0.003 0.006-0.009 0.006-0.012 0.009-0.015 0.015-0.030 0.024-0.042 0-0.003 0.003-0.003 0.003-0.006 0.015-0.027 0.030-0.051 0.045-0.079 0.003-0.003 0.003-0.006 0.006-0.009 0.018-0.027 0.033-0.054 0.051-0.085 0.003-0.006 0.009-0.012 0.012-0.018 0.345-0.551 0.762-1.035 1.271-1.316 0.003 0 0.003-0.003 0.006-0.003 0.015-0.009 0.030-0.015 0.045-0.024 0.012-0.006 0.024-0.012 0.036-0.018 0.018-0.009 0.039-0.018 0.057-0.027 0.003 0 0.006-0.003 0.009-0.003s0.006-0.003 0.009-0.003c0.269-0.124 0.505-0.197 0.711-0.242 0 0 0 0 0.003 0 0.009-0.003 0.018-0.003 0.027-0.006l0.154-0.033 0.1 0.006-0.021-0.569c-0.003-0.091 0.003-0.178 0.015-0.266 0.055-0.339 0.206-1.183 0.427-1.304 0.166-0.091 0.327-0.073 0.448 0.042 0.015 0.018 0.030 0.033 0.045 0.051 0.057 0.073 0.1 0.172 0.124 0.293 0.076 0.387 0.303 0.523 0.626 0.572 0.194 0.030 0.242-0.124 0.312-0.287 0.045-0.112 0.103-0.227 0.215-0.293 0.281-0.172 0.427 0.327 0.672 0.408 0.185 0.061-0.796 0.853-1.292 1.243-0.009 0-0.018 0-0.027 0-0.085 0-0.163 0.036-0.239 0.076-0.003 0-0.003-0.003-0.006-0.003-0.018-0.006-0.033-0.009-0.048-0.009-0.151-0.076-0.345-0.085-0.463 0.057-0.012 0.015-0.021 0.030-0.030 0.045-0.003 0.006-0.006 0.012-0.009 0.018-0.024 0.057-0.027 0.124 0 0.181 0.036 0.082 0.115 0.142 0.209 0.142 0.070 0 0.124-0.033 0.163-0.085-0.012 0.051-0.027 0.103-0.039 0.154-0.033 0.13-0.060 0.263-0.082 0.396-0.009 0.067-0.021 0.133-0.027 0.2-0.003 0.033-0.009 0.067-0.012 0.103-0.003 0.039-0.003 0.076-0.003 0.115 0 0.064-0.012 0.13-0.015 0.197-0.006 0.073-0.006 0.142-0.006 0.215 0 0.042 0.045 0.070 0.082 0.070s0.079-0.030 0.082-0.070c0.006-0.070 0.009-0.136 0.015-0.206 0.003-0.064 0.003-0.13 0.012-0.194 0.003-0.018 0.009-0.033 0.012-0.048 0.003-0.018 0.003-0.033 0.006-0.051 0.003-0.033 0.006-0.070 0.009-0.103 0.006-0.067 0.015-0.133 0.024-0.2 0.018-0.133 0.033-0.269 0.051-0.402 0.012-0.088 0.027-0.172 0.042-0.257 0.021 0.070 0.042 0.136 0.061 0.206 0.048 0.194 0.079 0.393 0.085 0.593 0.006 0.194-0.024 0.39-0.045 0.584-0.006 0.039 0.021 0.076 0.057 0.088 0.036 0.009 0.082-0.009 0.094-0.045 0.042-0.13 0.057-0.266 0.067-0.402 0.012-0.212-0.006-0.424-0.051-0.632-0.024-0.109-0.054-0.215-0.097-0.321 0.027 0.012 0.054 0.024 0.085 0.033 0.061 0.015 0.124 0.012 0.178-0.015 1.138 0.635 1.558 1.984 1.776 3.188 0.048 0.275 0.121 0.638 0.163 1.019 0.091 0.889 0.033 1.881-0.835 2.127z"></path>
<path fill="#fcb713" style="fill: var(--color4, #fcb713)" opacity="0.8" d="M37.838 7.35c-0.070 0.163-0.118 0.318-0.312 0.287-0.324-0.048-0.551-0.181-0.623-0.572-0.024-0.124-0.067-0.221-0.124-0.293 0.445 0.484 0.826 0.581 1.059 0.578z"></path>
<path fill="#fcb713" style="fill: var(--color4, #fcb713)" opacity="0.5" d="M39.354 14.779c-0.036 0.269-0.272 0.472-0.52 0.587-0.708 0.333-1.477 0.133-2.224 0.133-0.445 0-0.923 0.048-1.368 0-1.253-0.139-2.378-0.387-2.757-0.617-0.324-0.197-0.563-0.427-0.72-0.665-0.287-0.439-0.303-0.901-0.088-1.234 0.163-0.251 0.348-0.49 0.575-0.687 0.539-0.463 0.741-1.080 1.098-1.676 0.363-0.608 0.838-1.216 1.495-1.522 0.003 0 0.006-0.003 0.009-0.003s0.006-0.003 0.009-0.003c0.088-0.036 0.427-0.166 0.711-0.242 0 0 0 0 0.003 0 0.009-0.003 0.018-0.006 0.027-0.006 0.055-0.015 0.106-0.024 0.154-0.033 0.036-0.006 0.070-0.009 0.1-0.012 0.061-0.003 0.106 0.003 0.127 0.027 0.006 0.006 0.009 0.015 0.009 0.027 0 0.006 0 0.009 0 0.015-0.012 0.079-0.139 0.2-0.185 0.269-0.185 0.284-0.348 0.584-0.484 0.892-0.212 0.475-0.366 0.983-0.433 1.497-0.048 0.39-0.169 0.774-0.357 1.122-0.13 0.242-0.378 0.387-0.484 0.644-0.215 0.517 0.309 0.699 0.666 0.895s0.72 0.378 1.108 0.502c0.563 0.178 1.153 0.263 1.74 0.269 0.157 0.003 1.785-0.148 1.788-0.182z"></path>
<path fill="#fcb713" style="fill: var(--color4, #fcb713)" opacity="0.6400000000000001" d="M36.243 13.5c-0.085-0.027-0.154-0.060-0.218-0.1-0.061-0.039-0.112-0.076-0.157-0.112-0.042-0.036-0.079-0.073-0.103-0.106s-0.042-0.057-0.054-0.073c-0.012-0.018-0.018-0.033-0.018-0.048-0.003-0.015 0.006-0.030 0.027-0.048l0.169-0.154c0.018-0.018 0.036-0.024 0.057-0.021s0.042 0.024 0.067 0.057c0.036 0.051 0.085 0.1 0.136 0.148 0.054 0.048 0.115 0.085 0.178 0.112l0.157-0.608c-0.067-0.048-0.13-0.1-0.191-0.154-0.063-0.057-0.118-0.118-0.163-0.188s-0.079-0.145-0.097-0.227c-0.018-0.085-0.015-0.175 0.012-0.281 0.018-0.076 0.048-0.142 0.091-0.203s0.094-0.112 0.157-0.151c0.064-0.039 0.139-0.067 0.227-0.082s0.185-0.012 0.294 0.006l0.024-0.1c0.003-0.015 0.012-0.030 0.027-0.036 0.015-0.009 0.030-0.009 0.045-0.006l0.039 0.009c0.015 0.003 0.030 0.015 0.036 0.027 0.009 0.015 0.009 0.030 0.006 0.045l-0.027 0.103c0.067 0.024 0.127 0.051 0.185 0.085s0.106 0.067 0.148 0.1c0.042 0.033 0.076 0.067 0.103 0.094s0.045 0.048 0.057 0.064c0.015 0.015 0.021 0.033 0.018 0.054s-0.012 0.039-0.024 0.054l-0.172 0.148c-0.036 0.030-0.067 0.030-0.094 0.003-0.036-0.039-0.079-0.085-0.13-0.133s-0.112-0.091-0.178-0.127l-0.148 0.569c0.061 0.045 0.124 0.1 0.191 0.157s0.124 0.124 0.172 0.197 0.085 0.151 0.109 0.239c0.024 0.088 0.021 0.182-0.006 0.281-0.045 0.169-0.136 0.296-0.275 0.381s-0.318 0.106-0.53 0.063l-0.085 0.324c-0.003 0.015-0.015 0.027-0.030 0.036-0.015 0.006-0.030 0.009-0.048 0.003s-0.039-0.012-0.060-0.024c-0.021-0.012-0.027-0.030-0.021-0.057l0.097-0.321zM36.73 11.612c-0.082-0.009-0.148 0-0.197 0.033-0.051 0.030-0.082 0.076-0.1 0.136-0.015 0.064-0.009 0.118 0.018 0.169 0.030 0.051 0.079 0.106 0.145 0.169l0.133-0.508zM36.488 13.203c0.073 0.009 0.136 0.003 0.191-0.024s0.091-0.073 0.109-0.145c0.015-0.060 0.012-0.121-0.012-0.185s-0.073-0.127-0.145-0.194l-0.142 0.548z"></path>
<path fill="#fcb713" style="fill: var(--color4, #fcb713)" opacity="0.8" d="M37.644 8.832c-0.045-0.079-0.124-0.121-0.212-0.127-0.009 0-0.018 0-0.027 0-0.085 0-0.163 0.036-0.239 0.076-0.003 0-0.003-0.003-0.006-0.003-0.018-0.006-0.033-0.009-0.048-0.009-0.151-0.076-0.345-0.085-0.463 0.057-0.012 0.015-0.021 0.030-0.030 0.045-0.003 0.006-0.006 0.012-0.009 0.018-0.024 0.057-0.027 0.124 0 0.181 0.036 0.082 0.115 0.142 0.209 0.142 0.070 0 0.124-0.033 0.163-0.085-0.012 0.051-0.027 0.103-0.039 0.154-0.033 0.13-0.061 0.263-0.082 0.396-0.009 0.067-0.021 0.133-0.027 0.2-0.003 0.033-0.009 0.067-0.012 0.103-0.003 0.039-0.003 0.076-0.003 0.115 0 0.064-0.012 0.13-0.015 0.197-0.006 0.073-0.006 0.142-0.006 0.215 0 0.042 0.045 0.070 0.082 0.070s0.079-0.030 0.082-0.070c0.006-0.070 0.009-0.136 0.015-0.206 0.003-0.064 0.003-0.13 0.012-0.194 0.003-0.018 0.009-0.033 0.012-0.048 0.003-0.018 0.003-0.033 0.006-0.051 0.003-0.033 0.006-0.070 0.009-0.103 0.006-0.067 0.015-0.133 0.024-0.2 0.018-0.133 0.033-0.269 0.051-0.402 0.012-0.088 0.027-0.172 0.042-0.257 0.021 0.070 0.042 0.136 0.061 0.206 0.048 0.194 0.079 0.393 0.085 0.593 0.006 0.194-0.024 0.39-0.045 0.584-0.006 0.039 0.021 0.076 0.057 0.088 0.036 0.009 0.082-0.009 0.094-0.045 0.042-0.13 0.057-0.266 0.067-0.402 0.012-0.212-0.006-0.424-0.051-0.632-0.024-0.109-0.054-0.215-0.097-0.321 0.027 0.012 0.055 0.024 0.085 0.033 0.061 0.015 0.124 0.012 0.178-0.015 0.024-0.012 0.045-0.027 0.064-0.048 0.054-0.067 0.060-0.175 0.015-0.254zM37.333 8.877c0.036-0.003 0.070 0.003 0.094 0.012 0.006 0.003 0.012 0.006 0.018 0.009 0.003 0.003 0.006 0.003 0.009 0.006 0 0-0.003 0-0.006-0.003 0.003 0.003 0.009 0.006 0.012 0.009-0.006-0.003 0.012 0.018 0.009 0.012 0.003 0.003 0.003 0.009 0.006 0.015 0 0 0 0.003 0 0.006 0 0 0 0.009 0 0.012v0.003c-0.003 0-0.006 0.003-0.006 0.003s0 0 0.003 0c-0.003 0-0.009 0-0.009 0-0.003 0-0.003 0-0.003 0h-0.003c-0.006 0-0.015-0.003-0.021-0.003-0.003 0-0.012-0.003-0.012-0.003-0.006-0.003-0.012-0.003-0.018-0.006-0.012-0.006-0.027-0.012-0.039-0.018-0.024-0.015-0.048-0.030-0.073-0.048 0.009-0.003 0.024-0.006 0.039-0.006z"></path>
<path fill="#231f20" style="fill: var(--color15, #231f20)" opacity="0.108" d="M18.875 19.489c0.003 0.175 0.009 0.354 0.012 0.529l0.009 0.529c0 0.012-0.009 0.021-0.018 0.021-0.012 0-0.021-0.009-0.021-0.018l0.009-0.529c0.003-0.178 0.006-0.354 0.009-0.532z"></path>
<path fill="#231f20" style="fill: var(--color15, #231f20)" opacity="0.108" d="M18.908 21.606l0.006 0.529 0.003 0.529c0 0.021-0.018 0.042-0.039 0.042s-0.042-0.018-0.042-0.039l0.003-0.529 0.006-0.529c0-0.018 0.015-0.033 0.033-0.033 0.015 0 0.030 0.015 0.030 0.030z"></path>
<path fill="#231f20" style="fill: var(--color15, #231f20)" opacity="0.108" d="M18.92 23.724c0 0.354 0 0.705 0 1.059 0 0.024-0.021 0.045-0.045 0.045s-0.045-0.021-0.045-0.045c0-0.354 0-0.705 0-1.059 0-0.024 0.021-0.046 0.045-0.046 0.024 0.003 0.045 0.021 0.045 0.046z"></path>
<path fill="#231f20" style="fill: var(--color15, #231f20)" opacity="0.108" d="M18.917 25.841l-0.003 0.529-0.006 0.529c0 0.018-0.015 0.030-0.033 0.030s-0.030-0.015-0.030-0.030l-0.006-0.529-0.003-0.529c0-0.021 0.018-0.039 0.039-0.042 0.024 0.003 0.042 0.021 0.042 0.042z"></path>
<path fill="#231f20" style="fill: var(--color15, #231f20)" opacity="0.108" d="M18.896 27.959l-0.009 0.505c-0.003 0.169-0.006 0.336-0.009 0.505-0.003-0.169-0.009-0.336-0.009-0.505l-0.009-0.505c0-0.012 0.009-0.018 0.018-0.018s0.018 0.009 0.018 0.018z"></path>
<path fill="#231f20" style="fill: var(--color15, #231f20)" opacity="0.108" d="M21.308 19.489c0.012 0.175 0.021 0.354 0.027 0.529 0.003 0.088 0.006 0.175 0.009 0.266 0.003 0.088 0.006 0.175 0.006 0.266 0 0.021-0.018 0.039-0.039 0.039s-0.039-0.018-0.039-0.039c0-0.088 0.003-0.175 0.006-0.266 0.003-0.088 0.006-0.175 0.009-0.266 0.003-0.175 0.009-0.351 0.021-0.529z"></path>
<path fill="#231f20" style="fill: var(--color15, #231f20)" opacity="0.108" d="M21.35 21.606l-0.003 0.266-0.006 0.263c-0.006 0.175-0.012 0.354-0.021 0.529 0 0.006-0.006 0.009-0.012 0.009s-0.009-0.003-0.009-0.009c-0.009-0.175-0.015-0.354-0.021-0.529l-0.006-0.263-0.003-0.266c0-0.024 0.018-0.042 0.042-0.042 0.021 0 0.039 0.018 0.039 0.042z"></path>
<path fill="#231f20" style="fill: var(--color15, #231f20)" opacity="0.108" d="M23.462 17.371c0.009 0.175 0.012 0.354 0.018 0.529s0.009 0.354 0.012 0.529c0 0.018-0.012 0.030-0.030 0.030s-0.030-0.012-0.030-0.030c0.003-0.175 0.006-0.354 0.012-0.529 0.006-0.178 0.009-0.354 0.018-0.529z"></path>
<path fill="#231f20" style="fill: var(--color15, #231f20)" opacity="0.108" d="M23.505 19.489l0.003 0.529v0.529c0 0.024-0.021 0.046-0.045 0.046s-0.045-0.018-0.045-0.046v-0.529l0.003-0.529c0-0.024 0.018-0.042 0.042-0.042s0.042 0.018 0.042 0.042z"></path>
<path fill="#231f20" style="fill: var(--color15, #231f20)" opacity="0.108" d="M23.495 21.606c-0.003 0.175-0.006 0.354-0.009 0.529l-0.015 0.529c0 0.003-0.003 0.006-0.006 0.006s-0.006-0.003-0.006-0.006l-0.015-0.529c-0.003-0.175-0.009-0.354-0.009-0.529 0-0.018 0.015-0.033 0.033-0.033 0.012 0 0.024 0.012 0.027 0.033z"></path>
<path fill="#231f20" style="fill: var(--color15, #231f20)" opacity="0.108" d="M25.965 17.371l0.009 0.529 0.006 0.529c0 0.009-0.006 0.015-0.015 0.015s-0.015-0.006-0.015-0.015l0.006-0.529 0.009-0.529z"></path>
<path fill="#231f20" style="fill: var(--color15, #231f20)" opacity="0.108" d="M25.992 19.489l0.009 1.059c0 0.021-0.015 0.036-0.036 0.036s-0.036-0.015-0.036-0.036l0.009-1.059c0-0.015 0.012-0.027 0.027-0.027s0.027 0.012 0.027 0.027z"></path>
<path fill="#231f20" style="fill: var(--color15, #231f20)" opacity="0.108" d="M26.007 21.606l0.003 1.059c0 0.024-0.018 0.042-0.042 0.042s-0.042-0.018-0.042-0.042l0.003-1.059c0-0.021 0.018-0.039 0.039-0.039 0.021-0.003 0.039 0.015 0.039 0.039z"></path>
<path fill="#231f20" style="fill: var(--color15, #231f20)" opacity="0.108" d="M26.010 23.724l-0.003 1.059c0 0.024-0.018 0.042-0.042 0.042s-0.042-0.018-0.042-0.042l-0.003-1.059c0-0.024 0.021-0.045 0.045-0.045s0.045 0.021 0.045 0.045z"></path>
<path fill="#231f20" style="fill: var(--color15, #231f20)" opacity="0.108" d="M26.004 25.841l-0.003 0.529-0.003 0.529c0 0.018-0.015 0.030-0.030 0.030-0.018 0-0.030-0.015-0.030-0.030l-0.003-0.529-0.003-0.529c0-0.021 0.018-0.039 0.039-0.039 0.015 0 0.033 0.018 0.033 0.039z"></path>
<path fill="#231f20" style="fill: var(--color15, #231f20)" opacity="0.108" d="M25.986 27.959l-0.015 1.059c0 0.003-0.003 0.006-0.006 0.006s-0.006-0.003-0.006-0.006l-0.015-1.059c0-0.012 0.009-0.021 0.021-0.021s0.021 0.009 0.021 0.021z"></path>
<path fill="#231f20" style="fill: var(--color15, #231f20)" opacity="0.108" d="M27.986 15.448c0.012 0.175 0.018 0.354 0.024 0.529s0.009 0.354 0.015 0.529c0 0.021-0.015 0.039-0.036 0.039s-0.039-0.015-0.039-0.036c0 0 0 0 0-0.003 0.003-0.175 0.009-0.354 0.015-0.529 0.003-0.178 0.009-0.354 0.021-0.529z"></path>
<path fill="#231f20" style="fill: var(--color15, #231f20)" opacity="0.108" d="M28.028 17.565c0 0.088 0 0.175-0.003 0.266l-0.003 0.266-0.003 0.26c-0.003 0.088-0.003 0.175-0.006 0.266 0 0.015-0.012 0.027-0.027 0.024-0.015 0-0.024-0.012-0.024-0.024-0.003-0.088-0.006-0.175-0.006-0.266l-0.006-0.266-0.003-0.266c0-0.088 0-0.175-0.003-0.266 0-0.024 0.018-0.045 0.045-0.045s0.039 0.024 0.039 0.051c0-0.003 0 0 0 0z"></path>
<path fill="#6457a4" style="fill: var(--color1, #6457a4)" opacity="0.3" d="M18.875 19.492c0.145 0 0.263-0.118 0.263-0.263s-0.118-0.263-0.263-0.263-0.263 0.118-0.263 0.263c0 0.145 0.118 0.263 0.263 0.263z"></path>
<path fill="#6457a4" style="fill: var(--color1, #6457a4)" opacity="0.3" d="M21.308 19.492c0.145 0 0.263-0.118 0.263-0.263s-0.118-0.263-0.263-0.263-0.263 0.118-0.263 0.263c0 0.145 0.118 0.263 0.263 0.263z"></path>
<path fill="#6457a4" style="fill: var(--color1, #6457a4)" opacity="0.3" d="M23.541 17.514c0.145 0 0.263-0.118 0.263-0.263s-0.118-0.263-0.263-0.263c-0.145 0-0.263 0.118-0.263 0.263s0.118 0.263 0.263 0.263z"></path>
<path fill="#6457a4" style="fill: var(--color1, #6457a4)" opacity="0.3" d="M25.974 17.514c0.145 0 0.263-0.118 0.263-0.263s-0.118-0.263-0.263-0.263-0.263 0.118-0.263 0.263c0 0.145 0.118 0.263 0.263 0.263z"></path>
<path fill="#6457a4" style="fill: var(--color1, #6457a4)" opacity="0.3" d="M27.931 15.671c0.145 0 0.263-0.118 0.263-0.263s-0.118-0.263-0.263-0.263c-0.145 0-0.263 0.118-0.263 0.263s0.118 0.263 0.263 0.263z"></path>
<path fill="none" opacity="0.4" stroke="#6457a4" style="stroke: var(--color1, #6457a4)" stroke-linejoin="round" stroke-linecap="round" stroke-miterlimit="10" stroke-width="0.613" d="M29.868 14.549l-1.937 0.859-1.958 1.842h-2.433l-2.233 1.978h-2.433"></path>
<path fill="none" opacity="0.4" stroke="#6457a4" style="stroke: var(--color1, #6457a4)" stroke-linejoin="round" stroke-linecap="round" stroke-miterlimit="10" stroke-width="0.613" d="M29.478 14.549h0.39l-0.26 0.26"></path>
</symbol>

<symbol id="icon-Group4" viewBox="0 0 32 32">
<path stroke-linejoin="round" stroke-linecap="round" stroke-miterlimit="10" stroke-width="0.6809" d="M13.957 11.234c0 1.498-1.226 2.723-2.723 2.723h-8.17c-1.498 0-2.723-1.226-2.723-2.723v-8.17c0-1.498 1.226-2.723 2.723-2.723h8.17c1.498 0 2.723 1.226 2.723 2.723v8.17z"></path>
<path stroke-linejoin="round" stroke-linecap="round" stroke-miterlimit="10" stroke-width="0.6809" d="M0.34 4.426h13.617"></path>
<path stroke-linejoin="round" stroke-linecap="round" stroke-miterlimit="10" stroke-width="0.6809" d="M18.043 11.234c0 1.498 1.226 2.723 2.723 2.723h8.17c1.498 0 2.723-1.226 2.723-2.723v-8.17c0-1.498-1.226-2.723-2.723-2.723h-8.17c-1.498 0-2.723 1.226-2.723 2.723v8.17z"></path>
<path stroke-linejoin="round" stroke-linecap="round" stroke-miterlimit="10" stroke-width="0.6809" d="M31.66 4.426h-13.617"></path>
<path stroke-linejoin="round" stroke-linecap="round" stroke-miterlimit="10" stroke-width="0.6809" d="M13.957 28.936c0 1.498-1.226 2.723-2.723 2.723h-8.17c-1.498 0-2.723-1.226-2.723-2.723v-8.17c0-1.498 1.226-2.723 2.723-2.723h8.17c1.498 0 2.723 1.226 2.723 2.723v8.17z"></path>
<path stroke-linejoin="round" stroke-linecap="round" stroke-miterlimit="10" stroke-width="0.6809" d="M0.34 22.128h13.617"></path>
<path stroke-linejoin="round" stroke-linecap="round" stroke-miterlimit="10" stroke-width="0.6809" d="M18.043 28.936c0 1.498 1.226 2.723 2.723 2.723h8.17c1.498 0 2.723-1.226 2.723-2.723v-8.17c0-1.498-1.226-2.723-2.723-2.723h-8.17c-1.498 0-2.723 1.226-2.723 2.723v8.17z"></path>
<path stroke-linejoin="round" stroke-linecap="round" stroke-miterlimit="10" stroke-width="0.6809" d="M31.66 22.128h-13.617"></path>
</symbol>

<symbol id="arrow-right" viewBox="0 0 38 32">
<path fill="#2f70fe" style="fill: var(--color1, #2f70fe)" d="M23.2 31.2c-0.205 0-0.41-0.078-0.566-0.234-0.312-0.312-0.312-0.819 0-1.131l13.835-13.835-13.834-13.834c-0.312-0.312-0.312-0.819 0-1.131s0.819-0.312 1.131 0l14.4 14.4c0.312 0.312 0.312 0.819 0 1.131l-14.4 14.4c-0.157 0.155-0.362 0.234-0.566 0.234z"></path>
<path fill="#2f70fe" style="fill: var(--color1, #2f70fe)" d="M37.6 16.8h-36.8c-0.442 0-0.8-0.358-0.8-0.8s0.358-0.8 0.8-0.8h36.8c0.442 0 0.8 0.358 0.8 0.8s-0.358 0.8-0.8 0.8z"></path>
</symbol>

<symbol id="icon-menu" viewBox="0 0 32 32">
<path d="M2 6h28v6h-28zM2 14h28v6h-28zM2 22h28v6h-28z"></path>
</symbol>

<symbol id="icon-close" viewBox="0 0 32 32">
<path fill="none" stroke="#fff" style="stroke: var(--color1, #fff)" stroke-linejoin="miter" stroke-linecap="butt" stroke-miterlimit="4" stroke-width="2" d="M2.52 2l26.96 28M2 29.48l28-26.96"></path>
</symbol>

</defs>
</svg>
