<svg aria-hidden="true" style="position: absolute; width: 0; height: 0; overflow: hidden;" version="1.1" xmlns="http://www.w3.org/2000/svg" xmlns:xlink="http://www.w3.org/1999/xlink">
<defs>
<symbol id="icon-sprite" viewBox="0 0 27 32">
<path d="M16.889 7.111c0-1.961-1.595-3.556-3.556-3.556s-3.556 1.595-3.556 3.556c0 1.961 1.595 3.556 3.556 3.556s3.556-1.595 3.556-3.556zM20.444 7.111c0 3.922-3.189 7.111-7.111 7.111s-7.111-3.189-7.111-7.111c0-3.922 3.189-7.111 7.111-7.111s7.111 3.189 7.111 7.111zM0.889 30.222c0-6.862 5.584-12.444 12.444-12.444s12.444 5.582 12.444 12.444c0 0.981-0.795 1.778-1.778 1.778s-1.778-0.797-1.778-1.778c0-4.901-3.988-8.889-8.889-8.889s-8.889 3.988-8.889 8.889c0 0.981-0.795 1.778-1.778 1.778s-1.778-0.797-1.778-1.778z"></path>
</symbol>
<symbol id="icon-user" viewBox="0 0 32 32">
<path d="M18 22.082v-1.649c2.203-1.241 4-4.337 4-7.432 0-4.971 0-9-6-9s-6 4.029-6 9c0 3.096 1.797 6.191 4 7.432v1.649c-6.784 0.555-12 3.888-12 7.918h28c0-4.030-5.216-7.364-12-7.918z"></path>
</symbol>

<symbol id="icon-Group4" viewBox="0 0 32 32">
<path stroke-linejoin="round" stroke-linecap="round" stroke-miterlimit="10" stroke-width="0.6809" d="M13.957 11.234c0 1.498-1.226 2.723-2.723 2.723h-8.17c-1.498 0-2.723-1.226-2.723-2.723v-8.17c0-1.498 1.226-2.723 2.723-2.723h8.17c1.498 0 2.723 1.226 2.723 2.723v8.17z"></path>
<path stroke-linejoin="round" stroke-linecap="round" stroke-miterlimit="10" stroke-width="0.6809" d="M0.34 4.426h13.617"></path>
<path stroke-linejoin="round" stroke-linecap="round" stroke-miterlimit="10" stroke-width="0.6809" d="M18.043 11.234c0 1.498 1.226 2.723 2.723 2.723h8.17c1.498 0 2.723-1.226 2.723-2.723v-8.17c0-1.498-1.226-2.723-2.723-2.723h-8.17c-1.498 0-2.723 1.226-2.723 2.723v8.17z"></path>
<path stroke-linejoin="round" stroke-linecap="round" stroke-miterlimit="10" stroke-width="0.6809" d="M31.66 4.426h-13.617"></path>
<path stroke-linejoin="round" stroke-linecap="round" stroke-miterlimit="10" stroke-width="0.6809" d="M13.957 28.936c0 1.498-1.226 2.723-2.723 2.723h-8.17c-1.498 0-2.723-1.226-2.723-2.723v-8.17c0-1.498 1.226-2.723 2.723-2.723h8.17c1.498 0 2.723 1.226 2.723 2.723v8.17z"></path>
<path stroke-linejoin="round" stroke-linecap="round" stroke-miterlimit="10" stroke-width="0.6809" d="M0.34 22.128h13.617"></path>
<path stroke-linejoin="round" stroke-linecap="round" stroke-miterlimit="10" stroke-width="0.6809" d="M18.043 28.936c0 1.498 1.226 2.723 2.723 2.723h8.17c1.498 0 2.723-1.226 2.723-2.723v-8.17c0-1.498-1.226-2.723-2.723-2.723h-8.17c-1.498 0-2.723 1.226-2.723 2.723v8.17z"></path>
<path stroke-linejoin="round" stroke-linecap="round" stroke-miterlimit="10" stroke-width="0.6809" d="M31.66 22.128h-13.617"></path>
</symbol>

<symbol id="arrow-right" viewBox="0 0 38 32">
<path fill="#2f70fe" style="fill: var(--color1, #2f70fe)" d="M23.2 31.2c-0.205 0-0.41-0.078-0.566-0.234-0.312-0.312-0.312-0.819 0-1.131l13.835-13.835-13.834-13.834c-0.312-0.312-0.312-0.819 0-1.131s0.819-0.312 1.131 0l14.4 14.4c0.312 0.312 0.312 0.819 0 1.131l-14.4 14.4c-0.157 0.155-0.362 0.234-0.566 0.234z"></path>
<path fill="#2f70fe" style="fill: var(--color1, #2f70fe)" d="M37.6 16.8h-36.8c-0.442 0-0.8-0.358-0.8-0.8s0.358-0.8 0.8-0.8h36.8c0.442 0 0.8 0.358 0.8 0.8s-0.358 0.8-0.8 0.8z"></path>
</symbol>

<symbol id="icon-menu" viewBox="0 0 32 32">
<path d="M2 6h28v6h-28zM2 14h28v6h-28zM2 22h28v6h-28z"></path>
</symbol>

<symbol id="icon-close" viewBox="0 0 32 32">
<path fill="none" stroke="#fff" style="stroke: var(--color1, #fff)" stroke-linejoin="miter" stroke-linecap="butt" stroke-miterlimit="4" stroke-width="2" d="M2.52 2l26.96 28M2 29.48l28-26.96"></path>
</symbol>

<!-- Icons Dark Theme -->
<symbol id="icon-sun" viewBox="0 0 32 32">
<path d="M16.938 7.938c0.552 0 1-0.448 1-1v-2c0-0.552-0.448-1-1-1s-1 0.448-1 1v2c0 0.552 0.448 1 1 1zM16.938 25.938c-0.552 0-1 0.448-1 1v2c0 0.552 0.448 1 1 1s1-0.448 1-1v-2c0-0.552-0.448-1-1-1zM9.16 23.302l-1.414 1.414c-0.391 0.391-0.391 1.023 0 1.414s1.023 0.391 1.414 0l1.414-1.414c0.391-0.392 0.391-1.023 0-1.414s-1.023-0.392-1.414 0zM7.938 16.938c0-0.552-0.448-1-1-1h-2c-0.552 0-1 0.448-1 1s0.448 1 1 1h2c0.552 0 1-0.448 1-1zM9.159 10.573c0.391 0.391 1.024 0.391 1.414 0s0.391-1.023 0-1.414l-1.414-1.414c-0.391-0.391-1.023-0.391-1.414 0s-0.391 1.023 0 1.414l1.414 1.414zM20.938 9.938c-0.699 0-1.363 0.135-2 0.325-0.637-0.19-1.301-0.325-2-0.325-3.859 0-7 3.141-7 7s3.141 7 7 7c0.699 0 1.363-0.135 2-0.326 0.637 0.19 1.301 0.326 2 0.326 3.859 0 7-3.141 7-7s-3.141-7-7-7zM15.952 21.839c-2.29-0.458-4.014-2.477-4.014-4.901s1.724-4.443 4.014-4.901c-1.243 1.264-2.014 2.992-2.014 4.901s0.771 3.637 2.014 4.901z"></path>
</symbol>

</defs>
</svg>
