<svg aria-hidden="true" style="position: absolute; width: 0; height: 0; overflow: hidden;" version="1.1" xmlns="http://www.w3.org/2000/svg" xmlns:xlink="http://www.w3.org/1999/xlink">
<defs>

<symbol id="icon-menu" viewBox="0 0 32 32">
<path d="M2 6h28v6h-28zM2 14h28v6h-28zM2 22h28v6h-28z"></path>
</symbol>

<symbol id="icon-close" viewBox="0 0 32 32">
<path fill="none" stroke="#fff" style="stroke: var(--color1, #fff)" stroke-linejoin="miter" stroke-linecap="butt" stroke-miterlimit="4" stroke-width="2" d="M2.52 2l26.96 28M2 29.48l28-26.96"></path>
</symbol>

<symbol id="icon-close-modal" viewBox="0 0 20 20">
<path d="M10 8.586l-7.071-7.071-1.414 1.414 7.071 7.071-7.071 7.071 1.414 1.414 7.071-7.071 7.071 7.071 1.414-1.414-7.071-7.071 7.071-7.071-1.414-1.414-7.071 7.071z"></path>
</symbol>

<!-- Icons Dark Theme -->
<symbol id="icon-sun" viewBox="0 0 32 32">
<path d="M16.938 7.938c0.552 0 1-0.448 1-1v-2c0-0.552-0.448-1-1-1s-1 0.448-1 1v2c0 0.552 0.448 1 1 1zM16.938 25.938c-0.552 0-1 0.448-1 1v2c0 0.552 0.448 1 1 1s1-0.448 1-1v-2c0-0.552-0.448-1-1-1zM9.16 23.302l-1.414 1.414c-0.391 0.391-0.391 1.023 0 1.414s1.023 0.391 1.414 0l1.414-1.414c0.391-0.392 0.391-1.023 0-1.414s-1.023-0.392-1.414 0zM7.938 16.938c0-0.552-0.448-1-1-1h-2c-0.552 0-1 0.448-1 1s0.448 1 1 1h2c0.552 0 1-0.448 1-1zM9.159 10.573c0.391 0.391 1.024 0.391 1.414 0s0.391-1.023 0-1.414l-1.414-1.414c-0.391-0.391-1.023-0.391-1.414 0s-0.391 1.023 0 1.414l1.414 1.414zM20.938 9.938c-0.699 0-1.363 0.135-2 0.325-0.637-0.19-1.301-0.325-2-0.325-3.859 0-7 3.141-7 7s3.141 7 7 7c0.699 0 1.363-0.135 2-0.326 0.637 0.19 1.301 0.326 2 0.326 3.859 0 7-3.141 7-7s-3.141-7-7-7zM15.952 21.839c-2.29-0.458-4.014-2.477-4.014-4.901s1.724-4.443 4.014-4.901c-1.243 1.264-2.014 2.992-2.014 4.901s0.771 3.637 2.014 4.901z"></path>
</symbol>

<!-- Icons Login -->
<symbol id="icon-user" viewBox="0 0 16 16">
<path d="M15 0h-7c-0.553 0-1 0.448-1 1s0.447 1 1 1h6v12h-6c-0.553 0-1 0.448-1 1s0.447 1 1 1h7c0.553 0 1-0.448 1-1v-14c0-0.552-0.447-1-1-1zM7 12l4-4-4-4v3h-6.107c-0.494 0-0.893 0.448-0.893 1s0.4 1 0.893 1h6.107v3z"></path>
</symbol>

<symbol id="icon-checkbox-checked" viewBox="0 0 32 32">
<path d="M28 0h-24c-2.2 0-4 1.8-4 4v24c0 2.2 1.8 4 4 4h24c2.2 0 4-1.8 4-4v-24c0-2.2-1.8-4-4-4zM14 24.828l-7.414-7.414 2.828-2.828 4.586 4.586 9.586-9.586 2.828 2.828-12.414 12.414z"></path>
</symbol>

</defs>
</svg>
